<svg width="131" height="32" viewBox="0 0 131 32" fill="none" xmlns="http://www.w3.org/2000/svg">
<path fill-rule="evenodd" clip-rule="evenodd" d="M53.7694 12.0913V19.2361C53.7694 22.3505 55.1434 23.9077 57.983 23.9993H59.815C59.9982 23.9993 60.1814 23.9077 60.273 23.8161C60.3646 23.7245 60.4562 23.5413 60.4562 23.3581V22.4421C60.4562 22.2589 60.3646 22.0757 60.273 21.9841C60.2239 21.9596 60.1814 21.935 60.1419 21.9123C60.0341 21.85 59.9491 21.8009 59.815 21.8009H58.1662C57.525 21.8009 56.9754 21.5261 56.7006 21.0681C56.4258 20.6101 56.2426 19.9689 56.2426 19.0529V12.0913H59.5402C59.7234 12.0913 59.9066 11.9997 59.9982 11.9081C60.0898 11.8165 60.1814 11.6333 60.1814 11.4501V10.6257C60.1814 10.4425 60.0898 10.2593 59.9982 10.1677C59.9066 10.0761 59.7234 9.98448 59.5402 9.98448H56.2426V5.49606C56.2426 5.31286 56.151 5.12966 56.0594 5.03806C55.9678 4.94646 55.7846 4.85486 55.6014 4.85486H54.4106C54.2274 4.85486 54.0442 4.94646 53.9526 5.03806C53.861 5.12966 53.7694 5.31286 53.7694 5.49606V9.98448H51.6626C51.4794 9.98448 51.2962 10.0761 51.2046 10.1677C51.113 10.2593 51.0214 10.4425 51.0214 10.6257V11.4501C51.0214 11.6333 51.113 11.8165 51.2046 11.9081C51.2536 11.9326 51.2961 11.9572 51.3356 11.9799L51.3356 11.98L51.3356 11.98C51.4434 12.0422 51.5284 12.0913 51.6626 12.0913H53.7694ZM63.6622 22.1673C64.1202 22.8085 64.6698 23.2665 65.4026 23.6329C66.1354 23.9993 66.9598 24.1825 67.601 23.9993C68.7918 23.9993 69.7994 23.8161 70.5322 23.4497C71.265 23.0833 71.9062 22.5337 72.2726 21.9841V23.1749C72.2726 23.3581 72.3642 23.5413 72.4558 23.6329C72.5049 23.6575 72.5474 23.682 72.5869 23.7048C72.6947 23.7671 72.7797 23.8161 72.9138 23.8161H74.1046C74.2878 23.8161 74.471 23.7245 74.5626 23.6329C74.6542 23.5413 74.7458 23.3581 74.7458 23.1749V14.4729C74.7458 13.0989 74.2878 11.9081 73.4634 10.9921C72.5474 10.0761 71.1734 9.61809 69.1582 9.61809C67.9674 9.61809 67.0514 9.89289 66.227 10.2593C65.4942 10.6257 64.853 11.0837 64.4866 11.6333C64.1202 12.1829 63.937 12.7325 63.937 13.0989C63.937 13.2821 64.0286 13.4653 64.1202 13.5569C64.1693 13.5814 64.2118 13.606 64.2512 13.6288L64.2512 13.6288C64.359 13.691 64.4441 13.7401 64.5782 13.7401H65.5858H65.9522C65.9522 13.6835 65.9872 13.6269 66.0355 13.5486L66.0355 13.5486L66.0356 13.5486C66.0654 13.5002 66.1004 13.4436 66.1354 13.3737C66.4102 12.9157 66.7766 12.5493 67.2346 12.1829C67.7842 11.9081 68.4254 11.7249 69.2498 11.7249C71.3566 11.7249 72.4558 12.6409 72.4558 14.4729V15.2057L68.4254 15.7553C66.7766 15.9385 65.4942 16.4881 64.4866 17.2209C63.479 18.0453 63.021 18.9613 63.021 20.1521C63.021 20.8849 63.2042 21.5261 63.6622 22.1673ZM72.3642 17.7705C72.3642 19.1445 71.9978 20.3353 71.265 21.0681C70.5322 21.8009 69.5246 22.1673 68.3338 22.1673C67.5094 22.1673 66.8682 21.9841 66.227 21.6177C65.5858 21.2513 65.311 20.7017 65.311 19.9689C65.311 19.3277 65.6774 18.7781 66.3186 18.3201C66.9598 17.8621 67.9674 17.5873 69.2498 17.4041L72.3642 17.0377V17.7705ZM80.2419 29.0373C79.3259 28.5793 78.6847 27.9381 78.3183 27.2969C77.9519 26.6557 77.7687 26.1061 77.7687 25.6481C77.7687 25.514 77.8177 25.429 77.88 25.3212L77.88 25.3212L77.88 25.3211C77.9028 25.2817 77.9273 25.2392 77.9519 25.1901C78.0435 25.0985 78.2267 25.0069 78.4099 25.0069H79.6007C79.7839 25.0069 79.8755 25.0069 79.9671 25.0985C80.0587 25.1901 80.1503 25.2817 80.2419 25.5565C80.6999 27.0221 81.8907 27.6633 83.6311 27.6633C85.0051 27.6633 85.9211 27.3885 86.5623 26.8389C87.2035 26.2893 87.5699 25.2817 87.5699 23.8161V21.9841C86.5623 23.2665 85.0967 23.9993 83.2647 23.9993C81.3411 23.9993 79.9671 23.3581 79.0511 22.1673C78.1351 20.9765 77.5855 19.4193 77.5855 17.5873V16.8545V16.1217C77.6771 14.2897 78.1351 12.7325 79.0511 11.5417C79.9671 10.3509 81.4327 9.70967 83.2647 9.70967C85.0967 9.70967 86.5623 10.3509 87.6615 11.7249V10.5341C87.6615 10.3509 87.7531 10.1677 87.8447 10.0761C87.9363 9.98447 88.1195 9.89287 88.3027 9.89287H89.4935C89.6767 9.89287 89.8599 9.98447 89.9515 10.0761C90.0431 10.1677 90.1347 10.3509 90.1347 10.5341V23.5413C90.1347 27.6633 88.0279 29.6785 83.9059 29.6785C82.2571 29.7701 81.0663 29.4953 80.2419 29.0373ZM86.5623 20.7017C87.2035 19.8773 87.5699 18.9613 87.5699 17.7705V16.8545V15.9385C87.4783 14.8393 87.2035 13.8317 86.5623 13.0073C85.9211 12.1829 85.0051 11.8165 83.7227 11.8165C82.4403 11.8165 81.5243 12.1829 80.9747 13.0073C80.4251 13.8317 80.0587 14.8393 80.0587 16.1217V16.8545V17.5873C80.1503 18.8697 80.4251 19.8773 80.9747 20.7017C81.5243 21.5261 82.4403 21.8925 83.7227 21.8925C85.0051 21.8925 85.9211 21.5261 86.5623 20.7017ZM93.4323 27.2969C93.7987 27.9381 94.4399 28.5793 95.3559 29.0373C96.2719 29.4953 97.4627 29.7701 99.0199 29.6785C103.142 29.6785 105.249 27.6633 105.249 23.5413V10.5341C105.249 10.3509 105.157 10.1677 105.066 10.0761C104.974 9.98447 104.791 9.89287 104.608 9.89287H103.417C103.234 9.89287 103.05 9.98447 102.959 10.0761C102.867 10.1677 102.776 10.3509 102.776 10.5341V11.7249C101.676 10.3509 100.211 9.70967 98.3787 9.70967C96.5467 9.70967 95.0811 10.3509 94.1651 11.5417C93.2491 12.7325 92.7911 14.2897 92.6995 16.1217V16.8545V17.5873C92.6995 19.4193 93.2491 20.9765 94.1651 22.1673C95.0811 23.3581 96.4551 23.9993 98.3787 23.9993C100.211 23.9993 101.676 23.2665 102.684 21.9841V23.8161C102.684 25.2817 102.318 26.2893 101.676 26.8389C101.035 27.3885 100.119 27.6633 98.7451 27.6633C97.0047 27.6633 95.8139 27.0221 95.3559 25.5565C95.2643 25.2817 95.1727 25.1901 95.0811 25.0985C94.9895 25.0069 94.8979 25.0069 94.7147 25.0069H93.5239C93.3407 25.0069 93.1575 25.0985 93.0659 25.1901C93.0414 25.2392 93.0168 25.2817 92.994 25.3212C92.9318 25.429 92.8827 25.514 92.8827 25.6481C92.8827 26.1061 93.0659 26.6557 93.4323 27.2969ZM102.684 17.7705C102.684 18.9613 102.318 19.8773 101.676 20.7017C101.127 21.5261 100.119 21.8925 98.8367 21.8925C97.5543 21.8925 96.6383 21.5261 96.0887 20.7017C95.5391 19.8773 95.2643 18.8697 95.1727 17.5873V16.8545V16.1217C95.1727 14.8393 95.5391 13.8317 96.0887 13.0073C96.6383 12.1829 97.5543 11.8165 98.8367 11.8165C100.119 11.8165 101.035 12.1829 101.676 13.0073C102.318 13.8317 102.592 14.8393 102.684 15.9385V16.8545V17.7705ZM109.646 22.4421C108.546 21.3429 107.997 19.7857 107.814 17.7705V16.8545V15.9385C107.905 14.0149 108.546 12.4577 109.646 11.3585C110.745 10.2593 112.21 9.61809 114.042 9.61809C115.966 9.61809 117.523 10.2593 118.622 11.4501C119.722 12.7325 120.271 14.3813 120.271 16.4881V16.9461C120.271 17.1293 120.18 17.3125 120.088 17.4041C119.996 17.4957 119.813 17.5873 119.63 17.5873H110.378V17.8621C110.47 19.0529 110.745 19.9689 111.478 20.7933C112.119 21.6177 113.035 21.9841 114.134 21.9841C114.958 21.9841 115.691 21.8009 116.149 21.5261C116.699 21.1597 117.065 20.8849 117.34 20.5185C117.41 20.4485 117.467 20.3786 117.515 20.3188C117.593 20.2221 117.65 20.1521 117.706 20.1521C117.744 20.1521 117.798 20.1364 117.861 20.118C117.95 20.092 118.057 20.0605 118.164 20.0605H119.355C119.538 20.0605 119.63 20.0605 119.813 20.1521C119.905 20.2437 119.996 20.3353 119.996 20.5185C119.996 20.8849 119.722 21.3429 119.264 21.8925C118.806 22.4421 118.073 22.9001 117.248 23.3581C116.332 23.7245 115.325 23.9993 114.226 23.9993C112.21 24.1825 110.745 23.6329 109.646 22.4421ZM117.798 15.9385C117.798 14.6561 117.432 13.5569 116.79 12.8241C116.149 11.9997 115.233 11.6333 114.042 11.6333C112.852 11.6333 111.936 11.9997 111.294 12.8241C110.653 13.6485 110.287 14.6561 110.287 15.8469V15.9385H117.798ZM122.836 23.2665C122.836 23.4497 122.928 23.6329 123.019 23.7245C123.068 23.7491 123.111 23.7736 123.15 23.7964C123.258 23.8586 123.343 23.9077 123.477 23.9077H124.668C124.851 23.9077 125.034 23.8161 125.126 23.7245C125.218 23.6329 125.309 23.4497 125.309 23.2665V15.3889C125.309 14.4729 125.584 13.6485 126.134 13.0989C126.683 12.5493 127.416 12.2745 128.424 12.2745H129.981C130.164 12.2745 130.347 12.1829 130.439 12.0913C130.53 11.9997 130.622 11.8165 130.622 11.6333V10.6257C130.622 10.4425 130.53 10.2593 130.439 10.1677C130.347 10.0761 130.164 9.98446 129.981 9.98446H128.973C127.141 9.98446 125.95 10.6257 125.218 11.8165V10.6257C125.218 10.4425 125.126 10.2593 125.034 10.1677C124.943 10.0761 124.76 9.98446 124.576 9.98446H123.477C123.294 9.98446 123.111 10.0761 123.019 10.1677C122.928 10.2593 122.836 10.4425 122.836 10.6257V23.2665Z" fill="#131313"/>
<path fill-rule="evenodd" clip-rule="evenodd" d="M32.0601 1.2824C32.0601 2.01521 31.5105 2.65641 30.6861 2.65641H17.4041V30.5945C17.4041 31.2357 16.9461 31.7853 16.3965 31.9685C15.5721 32.1517 14.7477 31.5105 14.7477 30.6861V2.65641H1.37401C0.549602 2.65641 0 2.01521 0 1.2824C0 0.549602 0.641202 0 1.37401 0H30.6861C31.4189 0 32.0601 0.549602 32.0601 1.2824ZM12.4576 6.22881V30.5945C12.4576 31.3273 11.908 31.9685 11.1752 31.9685C10.4424 31.9685 9.80124 31.4189 9.80124 30.5945V7.60282H1.37401C0.641202 7.60282 0 6.96162 0 6.22881C0 5.49601 0.641202 4.85481 1.37401 4.85481H11.0836C11.8164 4.94641 12.4576 5.49601 12.4576 6.22881ZM30.5945 7.51122C31.2357 7.51122 31.8769 7.14482 31.9685 6.50361C32.1517 5.67921 31.5105 4.94641 30.6861 4.85481H20.9765C20.2437 4.85481 19.6025 5.49601 19.6025 6.22881V30.5945C19.6025 31.4189 20.4269 32.0601 21.2513 31.8769C21.8009 31.6937 22.2589 31.1441 22.2589 30.5029V7.51122H30.5945Z" fill="#4271FF"/>
</svg>
