<svg width="13" height="16" viewBox="0 0 13 16" fill="none" xmlns="http://www.w3.org/2000/svg">
<path d="M6.49917 16C6.72305 16 6.91542 15.9216 7.07463 15.7649C7.23217 15.6098 7.31177 15.4203 7.31177 15.1999V2.73007L11.6103 6.96887C11.7662 7.12236 11.9585 7.1991 12.1874 7.1991C12.4196 7.1991 12.6136 7.12236 12.7678 6.97051C12.9221 6.81866 13 6.62761 13 6.39902C13 6.17369 12.9221 5.98428 12.7645 5.8308L7.07629 0.230227C6.9204 0.0767422 6.72803 0 6.49917 0C6.27032 0 6.07794 0.0767422 5.92206 0.230227L0.233831 5.8308C0.0779436 5.98428 0 6.17369 0 6.39902C0 6.62761 0.0779436 6.81866 0.232172 6.97051C0.386401 7.12236 0.580431 7.1991 0.812604 7.1991C1.04146 7.1991 1.23383 7.12236 1.38972 6.96887L5.68657 2.73007V15.1999C5.68657 15.4203 5.76617 15.6098 5.92537 15.7665C6.08458 15.9216 6.27529 16 6.49917 16Z" fill="white"/>
</svg>
