<svg xmlns="http://www.w3.org/2000/svg" xmlns:xlink="http://www.w3.org/1999/xlink" viewBox="0 0 800 238.17"><defs><style>.cls-1{fill:url(#linear-gradient);}.cls-2{fill:#fff;}</style><linearGradient id="linear-gradient" x1="373.75" y1="56.73" x2="711.4" y2="56.73" gradientUnits="userSpaceOnUse"><stop offset="0" stop-color="#fff" stop-opacity="0"/><stop offset="0.03" stop-color="#fff" stop-opacity="0.06"/><stop offset="0.14" stop-color="#fff" stop-opacity="0.28"/><stop offset="0.26" stop-color="#fff" stop-opacity="0.47"/><stop offset="0.37" stop-color="#fff" stop-opacity="0.63"/><stop offset="0.49" stop-color="#fff" stop-opacity="0.77"/><stop offset="0.61" stop-color="#fff" stop-opacity="0.87"/><stop offset="0.73" stop-color="#fff" stop-opacity="0.94"/><stop offset="0.86" stop-color="#fff" stop-opacity="0.99"/><stop offset="1" stop-color="#fff"/></linearGradient></defs><g id="Layer_2" data-name="Layer 2"><g id="Layer_1-2" data-name="Layer 1"><path class="cls-1" d="M706.94,72.1c-.23-.27-.47-.55-.71-.81A208.15,208.15,0,0,0,374.05,96l-.23.37a.89.89,0,0,0-.07.36,1,1,0,0,0,1,1,1,1,0,0,0,.72-.3h0l.15-.19a167.07,167.07,0,0,1,258.64-2c.57.67,1.12,1.36,1.67,2l0,0a46.75,46.75,0,0,0,70.13.48c.18-.18.34-.37.5-.55s.22-.25.32-.38a19.56,19.56,0,0,0,0-24.83Z"/><path class="cls-2" d="M130.21,126.52l.66,12.93q15.39-15.22,30.94-15.23,17.2,0,20.47,13.26,13.92-13.26,28.82-13.26,11.61,0,17.11,6.15t4,17.1l-8.5,60.42H194.23l7.21-52.07c.54-4.25-.93-6.39-4.43-6.39q-6.22,0-15.87,8l-7,50.43H145.44l7.2-52.07q.66-3.6-.32-5c-.66-.93-2-1.4-3.93-1.4q-6.22,0-16,7.54l-7.06,50.92H95.67l11.48-81.37Z"/><path class="cls-2" d="M320.63,207.89H297.54V192.5q-11.46,16.37-32.42,17.35-16.19.83-21.44-10.32t-1.8-34.21a81.62,81.62,0,0,1,5.07-19,44.58,44.58,0,0,1,7.12-12,24.4,24.4,0,0,1,10.32-6.63,52.48,52.48,0,0,1,12.28-2.87c3.87-.37,8.92-.57,15.14-.57a173.3,173.3,0,0,1,21.29,1.64q12.76,1.64,18.66,3.44ZM300,144.68l-9.66-.15q-8.68,0-12.52,3.68t-5.66,16.62q-2.12,14.08-1.3,18c.54,2.63,2.51,3.89,5.89,3.77q8.83-.49,19.32-14.24Z"/><path class="cls-2" d="M406.19,124.22l-6.38,27.35h-5.88q-7.86,0-24.07,5.73L363,207.89H333l11.44-81.37h23.26l.49,12.93q17.34-15.22,33.39-15.23Z"/><path class="cls-2" d="M450.25,145.18l-4.91,35c-.43,2.61-.28,4.34.49,5.15s2.57,1.23,5.4,1.23h10.15l1.48,19.81q-9.5,3.6-25.05,3.6-12.1,0-18.42-6.38t-4.67-17.19l6-41.26H406.34l2.49-17.84,14.74-.82,3.27-22h29.31l-3.12,22h20.79l-2.61,18.66Z"/><path class="cls-2" d="M50.59,167.44l-21-9.49q-12.91-5.89-17.27-14.08t-2.86-20q2.29-18,12.93-24.56t33.4-6.55q22.42,0,38.8,5.23l-2.77,20q-29.48-.5-37.5-.49c-5.14,0-8.68.44-10.64,1.31s-3.22,2.94-3.77,6.23c-.44,2.39-.14,4.23.91,5.48s3.4,2.64,7.11,4.17l19.48,8.52Q80.72,149,84.9,156.72t2.7,20.88q-2.31,19-12.12,25.71T41.75,210A173.86,173.86,0,0,1,0,204.93l3-21.6q33.06.81,37.33.82,9.16,0,12.7-1.56c2.34-1,3.78-3.13,4.32-6.3q.66-3.6-.73-5.24T50.59,167.44Z"/><path class="cls-2" d="M584.81,94.92l-15.9,113H538.14L545,159.26H512.44l-6.87,48.63H474.78l15.88-113h30.78l-5.73,41.74h32.41L554,94.92Z"/><path class="cls-2" d="M790.64,113.61a9.35,9.35,0,1,1,9.36-9.34A9.34,9.34,0,0,1,790.64,113.61Zm0-16.83a7.49,7.49,0,1,0,7.51,7.49A7.49,7.49,0,0,0,790.64,96.78Z"/><path class="cls-2" d="M793,100.15a2.12,2.12,0,0,1,.81.61,2.53,2.53,0,0,1,.44.72,2.4,2.4,0,0,1,.15.92,2.49,2.49,0,0,1-.3,1.21,1.7,1.7,0,0,1-1,.85,1.78,1.78,0,0,1,.86.69,3.09,3.09,0,0,1,.24,1.36v.58a3.83,3.83,0,0,0,0,.81.7.7,0,0,0,.34.49v.22h-2c0-.19-.09-.35-.11-.47a4.42,4.42,0,0,1-.08-.75v-.8a1.67,1.67,0,0,0-.29-1.1,1.46,1.46,0,0,0-1-.29h-1.78v3.41h-1.78V99.92h4.16A3.91,3.91,0,0,1,793,100.15Zm-3.75,1.28v2.34h1.95a2.17,2.17,0,0,0,.88-.14,1,1,0,0,0,.5-1,1.1,1.1,0,0,0-.49-1.06,1.66,1.66,0,0,0-.84-.16Z"/><path class="cls-2" d="M635.4,124.22q23.91,0,33.4,10.24t6.06,34q-3.27,22.92-14,32.17t-34,9.25q-23.75,0-33.48-10.15t-6.3-33.57q3.25-23.24,13.91-32.58T635.4,124.22Zm-.49,21q-8.17,0-11.46,4.5t-5.4,18.75q-1.8,12.6.08,16.61t9.74,4q7.7,0,11-4.57c2.18-3.07,3.94-9.18,5.24-18.35q2-12.76.16-16.86T634.91,145.18Z"/><path class="cls-2" d="M716.62,126.52v14.89q16.2-16.86,33.23-16.86,28.32,0,22.43,44.54a86.88,86.88,0,0,1-5,21.11q-3.36,8.36-8.6,12.61a30.14,30.14,0,0,1-10.89,5.82,52.79,52.79,0,0,1-13.67,1.55,118.77,118.77,0,0,1-23.24-2.29,105.91,105.91,0,0,1-1.16,15.39l-2.45,14.89h-29.8L693,126.52ZM714.16,191H724c6.65,0,11-1.25,13-3.77s3.68-8.4,5-17.67q1.8-13.43.82-17.61c-.66-2.78-2.51-4.17-5.57-4.17q-8.36,0-18.83,10.15Z"/></g></g></svg>