<?xml version="1.0" encoding="UTF-8"?>
<svg width="215px" height="90px" viewBox="0 0 215 90" version="1.1" xmlns="http://www.w3.org/2000/svg" xmlns:xlink="http://www.w3.org/1999/xlink">
    <title>Combined Shape</title>
    <g id="Page-1" stroke="none" stroke-width="1" fill="none" fill-rule="evenodd">
        <g id="MAC-Logo" transform="translate(0.095466, 0.647898)" fill="#FFFFFF" fill-rule="nonzero">
            <path d="M99.0759199,49.4525129 L102.016302,50.0003252 L107.946903,87.3511658 L104.508151,87.3013647 L103.561248,81.8730425 L98.0293433,81.5244347 L96.9827667,87.9985804 L92.5971122,89.2436084 L99.0759199,49.4525129 Z M203.185375,76.2455159 L207.870051,76.295317 L213.102934,78.5363674 L213.252445,86.7037512 L207.272007,89.2436084 L184.695855,88.9448017 L179.66232,86.9029557 L179.313461,78.5861686 L184.646018,76.2455159 L189.081509,76.295317 L189.430368,79.4327876 L186.340475,79.2833843 L185.293898,85.9567344 L205.627387,85.9567344 L206.325105,79.4327876 L203.384723,79.3331854 L203.185375,76.2455159 Z M7.1266884,49.4525129 L10.0670703,50.0003252 L15.9976712,87.3511658 L12.5589194,87.3013647 L11.6120168,81.8730425 L6.08011178,81.5244347 L5.03353517,87.9985804 L0.647880764,89.2436084 L7.1266884,49.4525129 Z M71.316721,49.4525129 L74.6059618,51.2453533 L79.7391709,78.7355719 L85.9687937,49.7015185 L89.1085235,50.1995297 L89.5570564,87.5503703 L86.1681416,88.4467905 L85.7196088,70.2195803 L82.23102,87.5503703 L78.2440615,87.0523591 L74.9049837,69.5721657 L75.1043316,87.5503703 L71.8150908,88.4467905 L71.316721,49.4525129 Z M155.890079,49.4027118 L159.827201,51.1955521 L166.405682,75.1498912 L167.1034,49.6517174 L170.143456,50.1995297 L170.542152,87.5503703 L165.757802,86.6539501 L159.428505,63.4466279 L159.67769,87.4507681 L156.388449,88.3969894 L155.890079,49.4027118 Z M21.3302282,48.7054961 L21.3302282,81.4248324 L28.1578947,81.9228437 L29.0051234,50.0999275 L32.1448533,50.5979387 L32.4937122,82.3212526 L29.4038193,87.3511658 L20.6325105,88.2973871 L18.3400093,80.7774179 L18.0409874,50.2493309 L21.3302282,48.7054961 Z M133.961807,49.502314 L133.91197,57.8689023 L129.875175,58.3669135 L130.622729,80.2296056 L134.011644,80.42881 L133.91197,87.0523591 L123.147182,88.247586 L123.197019,79.9805999 L126.336749,79.3331854 L126.735445,57.5202945 L123.246856,57.0222833 L123.396367,50.1497286 L133.961807,49.502314 Z M106.50163,49.6019163 L120.406148,49.9505241 L120.406148,57.0720844 L115.42245,55.7772553 L115.123428,88.0981826 L111.086633,86.5543479 L111.186306,58.0681068 L105.754075,57.8689023 L106.50163,49.6019163 Z M35.782953,49.6019163 L49.6376339,49.9505241 L49.6376339,57.0720844 L44.6539357,55.7772553 L44.3549138,88.0981826 L40.3679553,86.5543479 L40.4676293,58.0681068 L35.0353982,57.8689023 L35.782953,49.6019163 Z M149.809967,49.7015185 L152.052632,55.8270564 L152.351653,82.0224459 L149.909641,86.8531546 L140.590126,88.0483815 L137.55007,81.0264235 L137.699581,55.8270564 L140.091756,50.5481376 L149.809967,49.7015185 Z M64.8877503,49.7015185 L67.1304145,55.8270564 L67.4294364,82.0224459 L64.9874243,86.8531546 L55.6679087,88.0483815 L52.6278528,81.0264235 L52.7773638,55.8270564 L55.1695389,50.5481376 L64.8877503,49.7015185 Z M141.437354,56.2752665 L141.18817,79.6817932 L148.564043,80.5284123 L148.564043,58.0681068 L141.437354,56.2752665 Z M56.5151374,56.2752665 L56.2659525,79.6817932 L63.6418258,80.5284123 L63.6418258,58.0681068 L56.5151374,56.2752665 Z M212.903586,62.251401 L213.302282,65.2892693 L208.119236,66.0362861 L207.770377,70.916796 L212.704238,71.8132161 L212.554728,74.8012834 L179.861667,70.0203758 L178.516069,66.9825074 L212.903586,62.251401 Z M8.82114578,62.2015998 L6.97717746,73.8550621 L10.2664183,74.2534711 L8.82114578,62.2015998 Z M100.820214,62.2015998 L98.9762459,73.8550621 L102.265487,74.2534711 L100.820214,62.2015998 Z M201.042385,67.231513 L191.074988,68.4267399 L201.590592,70.0203758 L201.042385,67.231513 Z M178.516069,46.3648434 L212.754075,46.4146446 L214,50.1497286 L190.775966,56.1756642 L213.302282,55.8768575 L213.352119,58.6657203 L179.363298,59.2135326 L178.366558,55.7772553 L200.743363,49.502314 L179.81183,49.502314 L178.516069,46.3648434 Z M212.953423,31.0260982 L213.352119,34.0639666 L208.169073,34.8607845 L207.820214,39.7412944 L212.754075,40.6377145 L212.604565,43.6257818 L179.911504,38.8448742 L178.565906,35.8070058 L212.953423,31.0260982 Z M139.294364,7.10542736e-15 L146.47089,25.6475772 L146.47089,1.64343699 L150.059152,0.149403362 L150.009315,39.2930843 L145.723335,40.6875157 L138.845831,14.1435183 L139.19469,39.9903 L136.005123,40.0401011 L135.357243,1.14542578 L139.294364,7.10542736e-15 Z M3.33907778,1.42108547e-14 L9.21984164,28.88465 L14.6520727,1.74303923 L18.2403354,0.249005604 L18.1904984,39.4424876 L14.5523987,40.1895045 L14.1537028,21.3148797 L10.964136,39.4922888 L7.27619935,40.4385101 L3.53842571,20.5180618 L3.8374476,39.9903 L0.647880764,40.0401011 L1.42108547e-14,1.24502802 L3.33907778,1.42108547e-14 Z M32.2943642,0.249005604 L37.7265952,39.591891 L34.2380065,40.0401011 L33.2911039,34.0639666 L27.7093619,33.6655576 L26.7126223,39.3428854 L23.3237075,39.193482 L28.8057755,1.79284035 L32.2943642,0.249005604 Z M78.0447136,0.64741457 L70.6688402,19.6714427 L78.1942245,39.9404989 L73.7088961,38.9444764 L67.6287844,24.751157 L67.4792734,39.6914932 L63.2929669,37.7990507 L63.5919888,1.14542578 L67.3795994,1.34463026 L67.6287844,17.4801934 L73.8584071,1.29482914 L78.0447136,0.64741457 Z M43.1588263,1.14542578 L55.0200279,1.59363586 L57.611551,6.7231513 L57.561714,18.3766136 L54.870517,24.4523503 L53.8737774,24.2033447 L53.9734513,32.1217229 L57.4620401,32.0221207 L57.561714,39.2432832 L52.9767117,39.8906977 L50.1858407,33.6655576 L50.3851886,24.7013559 L46.9464369,24.4523503 L46.697252,39.1436809 L42.5109455,37.4006417 L43.1588263,1.14542578 Z M95.7866791,1.24502802 L95.5873312,8.21718493 L84.7727061,8.81479838 L84.922217,17.2311878 L95.6870051,16.6833755 L95.8863531,23.6057312 L84.8723801,24.6017537 L84.6231952,31.1257005 L95.8863531,32.2213251 L96.135538,39.7910955 L83.8258034,39.193482 L80.7857476,32.5201319 L81.2342804,6.97215691 L84.2743363,1.94224371 L95.7866791,1.24502802 Z M129.675827,1.14542578 L129.675827,8.71519613 L126.187238,8.81479838 L126.237075,32.171524 L129.775501,31.773115 L129.576153,38.8448742 L118.761528,39.6914932 L118.861202,31.8229162 L122.34979,32.8687397 L122.399627,8.91440062 L118.960876,9.46221295 L119.210061,1.74303923 L129.675827,1.14542578 Z M114.176525,1.24502802 L114.126688,8.71519613 L109.242664,10.308832 L108.893805,39.6416921 L104.807173,38.0978574 L104.956684,8.51599165 L99.6739637,9.01400286 L100.07266,2.09164707 L114.176525,1.24502802 Z M158.880298,0.846619053 L170.591989,1.94224371 L170.392641,8.41638941 L160.026549,10.2092298 L159.877038,32.2711263 L166.953889,31.8229162 L166.953889,24.2033447 L163.365626,24.5021514 L163.614811,17.2311878 L170.641826,16.1853642 L170.442478,38.8448742 L158.68095,39.5420899 L156.089427,34.8109834 L155.939916,7.32076475 L158.880298,0.846619053 Z M201.042385,36.0560114 L191.074988,37.2512383 L201.590592,38.8448742 L201.042385,36.0560114 Z M183.9483,15.2889441 L208.019562,15.3387452 L212.106195,17.8786024 L211.35864,28.5360422 L179.612483,27.9384287 L179.961341,17.5797956 L183.9483,15.2889441 Z M30.5500699,14.5419273 L28.7559385,26.5937985 L31.9455054,25.9463839 L30.5500699,14.5419273 Z M206.773638,18.2272102 L187.137867,18.575818 L185.891942,25.0499637 L207.07266,24.6515548 L206.773638,18.2272102 Z M46.547741,8.81479838 L46.547741,15.9861598 L54.0232883,16.6335743 L54.1727993,8.91440062 L46.547741,8.81479838 Z M212.953423,0.547812328 L213.352119,3.58568069 L208.119236,4.38249863 L207.770377,9.26300846 L212.704238,10.1594286 L212.554728,13.1474959 L179.861667,8.36658829 L178.516069,5.32871992 L212.953423,0.547812328 Z M201.042385,5.57772553 L191.074988,6.77295242 L201.590592,8.36658829 L201.042385,5.57772553 Z" id="Combined-Shape"></path>
        </g>
    </g>
</svg>