<svg height="42" viewBox="0 0 213 42" fill="none" xmlns="http://www.w3.org/2000/svg">
        <path d="M99.483 9V31.6658H95.9155V22.0385H84.5676V31.6469H81V9H84.5676V18.6841H95.9155V9H99.483Z" fill="#231F20"></path>
        <path d="M116.846 25.1275H104.664C104.986 27.8754 106.675 29.2778 109.332 29.2778C111.571 29.2778 113.051 28.3303 113.45 26.9847H116.676C116.068 29.8085 113.374 32.0258 109.294 32.0258C104.436 32.0258 101.248 28.7661 101.248 24.1041C101.248 19.48 104.455 16.1445 109.18 16.1445C113.753 16.1445 116.922 19.2905 116.922 24.0093C116.941 24.4452 116.903 24.7674 116.846 25.1275ZM104.683 22.6827H113.507C113.127 20.0864 111.59 18.8356 109.199 18.8356C106.732 18.8356 105.119 20.1433 104.683 22.6827Z" fill="#231F20"></path>
        <path d="M134.646 16.4855V31.3623C134.646 36.1191 131.591 38.9997 126.543 38.9997C122.103 38.9997 119.218 36.7634 118.934 33.2385H122.311C122.577 35.1526 124.133 36.157 126.581 36.157C129.75 36.157 131.401 34.4324 131.401 31.3623V29.0881H131.268C130.395 30.7748 128.346 31.7034 126.107 31.7034C121.894 31.7034 118.611 28.3301 118.611 23.9713C118.611 19.5745 121.875 16.1064 126.107 16.1064C128.346 16.1064 130.357 17.054 131.268 18.7217H131.363L131.553 16.4476H134.646V16.4855ZM126.733 28.7849C129.523 28.7849 131.401 26.7192 131.401 23.9902C131.401 21.2423 129.523 19.1766 126.733 19.1766C123.943 19.1766 122.065 21.2423 122.065 23.9902C122.065 26.7003 123.943 28.7849 126.733 28.7849Z" fill="#231F20"></path>
        <path d="M152.56 16.4855V31.3623C152.56 36.1191 149.505 38.9997 144.457 38.9997C140.017 38.9997 137.132 36.7634 136.848 33.2385H140.207C140.472 35.1526 142.028 36.157 144.476 36.157C147.645 36.157 149.296 34.4324 149.296 31.3623V29.0881H149.163C148.29 30.7748 146.241 31.7034 144.002 31.7034C139.789 31.7034 136.506 28.3301 136.506 23.9713C136.506 19.5745 139.77 16.1064 144.002 16.1064C146.241 16.1064 148.253 17.054 149.163 18.7217H149.258L149.448 16.4476H152.56V16.4855ZM144.647 28.7849C147.437 28.7849 149.315 26.7192 149.315 23.9902C149.315 21.2423 147.437 19.1766 144.647 19.1766C141.857 19.1766 139.979 21.2423 139.979 23.9902C139.979 26.7003 141.857 28.7849 144.647 28.7849Z" fill="#231F20"></path>
        <path d="M170.056 25.1275H157.873C158.196 27.8754 159.885 29.2778 162.542 29.2778C164.781 29.2778 166.261 28.3303 166.659 26.9847H169.904C169.297 29.8085 166.603 32.0258 162.523 32.0258C157.665 32.0258 154.477 28.7661 154.477 24.1041C154.477 19.48 157.684 16.1445 162.409 16.1445C166.982 16.1445 170.151 19.2905 170.151 24.0093C170.151 24.4452 170.132 24.7674 170.056 25.1275ZM157.911 22.6827H166.735C166.356 20.0864 164.819 18.8356 162.428 18.8356C159.942 18.8356 158.329 20.1433 157.911 22.6827Z" fill="#231F20"></path>
        <path d="M182.277 16.4105V19.5186C181.897 19.4617 181.328 19.3859 180.778 19.3859C177.855 19.3859 176.072 21.1673 176.072 25.204V31.6474H172.694V16.4864H175.768L175.958 19.4049H176.053C176.888 17.3013 178.709 16.2021 180.854 16.2021C181.404 16.1831 181.859 16.2589 182.277 16.4105Z" fill="#231F20"></path>
        <path d="M195.921 28.2551V31.2305C194.859 31.7801 193.682 32.0075 192.392 32.0075C188.672 32.0075 186.68 30.1881 186.68 26.1894V19.3669H183.283V16.4863H186.68V12.2412H190.058V16.4863H195.769V19.3669H190.058V25.943C190.058 28.1793 190.968 28.9942 193.037 28.9942C194.043 28.9753 194.991 28.7857 195.921 28.2551Z" fill="#231F20"></path>
        <path d="M213 16.4857L203.284 38.6588H199.679L203.018 31.211L196.566 16.4857H200.172L204.745 27.5723H204.84L209.375 16.4668H213V16.4857Z" fill="#231F20"></path>
        <rect x="0.29834" y="21.0293" width="15.2933" height="20.3222" fill="#00AA4E"></rect>
        <rect x="0.29834" y="0.707031" width="15.2933" height="20.3222" fill="#F4CF0C"></rect>
        <rect x="24.0881" y="25.0938" width="15.2933" height="16.2577" fill="#ED3024"></rect>
        <rect x="24.0881" y="0.707031" width="15.2933" height="16.2577" fill="#005AC8"></rect>
        <rect x="47.8774" y="21.0293" width="15.2933" height="20.3222" fill="#F58832"></rect>
        <rect x="47.8774" y="0.707031" width="15.2933" height="20.3222" fill="#603F98"></rect>
    </svg>