<svg width="172" height="50" viewBox="0 0 172 50" fill="none" xmlns="http://www.w3.org/2000/svg">
<path fill-rule="evenodd" clip-rule="evenodd" d="M42.092 5.88801L42.1227 5.92027L25.7379 23.0236C23.5347 20.2462 20.8751 18.3468 17.1147 18.0064C17.4549 25.9533 23.1894 32.0456 30.7101 32.0456C35.0875 32.0456 38.9145 30.1552 41.3074 26.9424L42.8816 28.5927L26.866 45.3843C24.0081 48.2602 20.0324 49.846 15.7729 49.846C7.03014 49.846 0 42.3327 0 32.7893C0 25.8924 3.733 19.9953 9.10859 17.2825C10.6772 13.8981 13.2831 11.1631 16.5096 9.51474C19.1145 3.94563 24.4423 0.154053 30.5819 0.154053C35.4789 0.154053 39.2119 2.41001 42.092 5.88801ZM14.8739 15.7146C14.9526 14.7429 15.1081 13.7798 15.3388 12.8351C14.1488 13.7396 13.1117 14.8468 12.2707 16.1106C13.1261 15.9009 13.997 15.7684 14.8739 15.7146ZM17.1694 15.7504C20.6033 16.0676 23.4235 17.5459 25.7567 19.7785L31.6553 13.593C29.4914 11.4948 26.8489 10.1885 23.309 10.1885C21.564 10.1824 19.8336 10.5216 18.2086 11.1883C17.6469 12.6461 17.2966 14.1839 17.1694 15.7504ZM15.9011 47.5775C19.6171 47.5775 22.9398 46.2139 25.3208 43.8325L26.5771 42.5585L27.6027 41.4834C26.1572 41.8818 24.6686 42.0824 23.174 42.0801C14.4312 42.0801 7.39934 34.5686 7.39934 25.0233C7.39951 23.5328 7.57868 22.0482 7.93262 20.6046C4.4731 23.2279 2.2921 27.6018 2.2921 32.7893C2.2921 41.1053 8.1497 47.5775 15.9011 47.5775ZM23.309 39.8098C27.0335 39.8098 30.3665 38.4408 32.7475 36.0469L33.985 34.7908L35.0106 33.7156C33.5654 34.1157 32.0766 34.3163 30.5819 34.3123C22.0664 34.3141 15.1781 27.1861 14.8243 17.9974C13.4448 18.1006 12.0881 18.4226 10.8007 18.9525C10.0618 20.8816 9.68738 22.9428 9.69828 25.0215C9.69828 33.3376 15.5576 39.8098 23.309 39.8098ZM39.0615 5.83605C36.8993 3.73957 34.2568 2.43151 30.7169 2.43151C26.0729 2.43151 22.1108 4.69642 19.6786 8.34466C20.8246 8.06523 21.9974 7.92513 23.174 7.92715C27.2506 7.92715 30.5204 9.49145 33.1629 12.0216L39.0615 5.83605ZM146.741 36.5253V36.1186C146.741 27.6646 151.527 22.2979 158.088 22.2979C162.191 22.2979 164.754 24.269 166.154 26.9048V10.5989H172V49.3336H166.154V44.879C164.802 47.5112 161.567 49.8407 157.847 49.8407C151.521 49.8407 146.741 45.1316 146.741 36.5253ZM166.347 36.2225V35.8175C166.347 29.9958 163.784 27.1091 159.538 27.1091C155.239 27.1091 152.728 30.2484 152.728 35.9699V36.3748C152.728 42.1966 155.53 44.9758 159.297 44.9758C163.353 44.9811 166.347 42.1446 166.347 36.2225ZM83.9174 10.6061H78.0734V49.33H83.9174V33.7408C83.9174 29.5407 86.5735 27.4138 89.857 27.4138C93.3405 27.4138 94.8788 29.2361 94.8788 33.2355V49.3336H100.721V32.6782C100.721 25.3889 97.1487 22.2998 92.0773 22.2998C87.9256 22.2998 85.1241 24.4769 83.9174 27.059V10.6061ZM51.0313 36.0199V36.4249C51.0313 44.8789 56.5368 49.8406 63.7857 49.8352C70.6415 49.8352 75.036 45.5311 75.4719 39.4567H70.1117C69.7732 43.2035 67.1171 45.1262 64.0267 45.1262C59.7229 45.1262 57.0188 42.089 57.0188 36.3174V35.9124C57.0188 30.4454 59.8681 27.2058 63.8763 27.2058C66.9666 27.2058 69.1887 28.6787 69.6707 32.223H75.3215C74.6446 24.9337 69.3818 22.2996 63.7806 22.2996C56.73 22.2996 51.0313 27.6161 51.0313 36.0199ZM103.329 36.3747V35.9698C103.329 27.7684 108.883 22.2996 116.319 22.2996C123.707 22.2996 129.26 27.7164 129.26 35.8174V36.2224C129.26 44.4739 123.707 49.8406 116.27 49.8406C108.833 49.8406 103.329 44.4238 103.329 36.3747ZM123.273 36.2726V35.9142C123.273 30.4472 120.664 27.1054 116.319 27.1054C111.975 27.1054 109.312 30.3971 109.312 35.864V36.269C109.312 41.6858 111.875 45.0778 116.319 45.0778C120.664 45.0778 123.273 41.6894 123.273 36.2726ZM137.952 22.8588H132.11V49.3264H137.952V35.5578C137.952 29.9385 141.039 28.2165 146.156 28.1663V22.4449C141.912 22.504 139.546 24.4787 137.952 27.8205V22.8588Z" fill="black"/>
</svg>
