<svg width="44" height="51" viewBox="0 0 44 51" fill="none" xmlns="http://www.w3.org/2000/svg">
<path d="M42.6818 6.68418L42.6511 6.65193C39.771 3.17392 36.038 0.917969 31.141 0.917969C25.0013 0.917969 19.6736 4.70955 17.0687 10.2787C13.8422 11.927 11.2363 14.6621 9.66767 18.0464C4.29208 20.7593 0.559082 26.6563 0.559082 33.5532C0.559082 43.0966 7.58922 50.6099 16.332 50.6099C20.5915 50.6099 24.5672 49.0241 27.4251 46.1482L43.4407 29.3566L41.8665 27.7063C39.4736 30.9191 35.6465 32.8095 31.2692 32.8095C23.7485 32.8095 18.0139 26.7172 17.6738 18.7703C21.4341 19.1108 24.0937 21.0101 26.297 23.7875L42.6818 6.68418ZM15.8979 13.599C15.6672 14.5437 15.5117 15.5068 15.433 16.4785C14.556 16.5323 13.6851 16.6648 12.8298 16.8745C13.6708 15.6107 14.7079 14.5036 15.8979 13.599ZM26.3158 20.5424C23.9826 18.3098 21.1624 16.8315 17.7285 16.5143C17.8557 14.9478 18.206 13.41 18.7677 11.9523C20.3927 11.2856 22.1231 10.9463 23.8681 10.9524C27.408 10.9524 30.0505 12.2587 32.2144 14.3569L26.3158 20.5424ZM25.8799 44.5964C23.4989 46.9778 20.1761 48.3414 16.4602 48.3414C8.70878 48.3414 2.85118 41.8692 2.85118 33.5532C2.85118 28.3657 5.03219 23.9918 8.49171 21.3685C8.13776 22.8121 7.95859 24.2967 7.95842 25.7872C7.95842 35.3325 14.9903 42.844 23.7331 42.844C25.2277 42.8463 26.7163 42.6457 28.1617 42.2473L27.1362 43.3224L25.8799 44.5964ZM33.3066 36.8108C30.9256 39.2047 27.5926 40.5737 23.8681 40.5737C16.1167 40.5737 10.2574 34.1015 10.2574 25.7854C10.2465 23.7067 10.6209 21.6455 11.3598 19.7164C12.6472 19.1866 14.0039 18.8645 15.3834 18.7613C15.7372 27.95 22.6255 35.078 31.141 35.0763C32.6357 35.0802 34.1245 34.8797 35.5696 34.4796L34.5441 35.5547L33.3066 36.8108ZM31.276 3.19543C34.8159 3.19543 37.4584 4.50349 39.6206 6.59997L33.7219 12.7855C31.0794 10.2554 27.8096 8.69107 23.7331 8.69107C22.5565 8.68905 21.3836 8.82914 20.2377 9.10857C22.6699 5.46034 26.632 3.19543 31.276 3.19543Z" fill="black"/>
</svg>
