<svg xmlns="http://www.w3.org/2000/svg" viewBox="0 0 448 512">
<path d="M100,23.647 L96.57,23.647 L96.57,18.127 C96.57,16.74 96.074,15.793 94.832,15.793 C93.885,15.793 93.32,16.434 93.072,17.049 C92.981,17.27 92.959,17.576 92.959,17.885 L92.959,23.647 L89.53,23.647 C89.53,23.647 89.574,14.297 89.53,13.33 L92.959,13.33 L92.959,14.791 C93.416,14.088 94.23,13.088 96.05,13.088 C98.306,13.088 100,14.563 100,17.732 L100,23.647 Z M85.917,11.922 L85.894,11.922 C84.744,11.922 84,11.127 84,10.139 C84,9.125 84.767,8.354 85.939,8.354 C87.113,8.354 87.836,9.125 87.857,10.139 C87.857,11.127 87.113,11.922 85.917,11.922 Z M84.202,23.647 L87.632,23.647 L87.632,13.33 L84.202,13.33 L84.202,23.647 Z M76,32 L108,32 L108,0 L76,0 L76,32 Z" id="icon_linkedin"/>
</svg>



