<svg xmlns="http://www.w3.org/2000/svg" viewBox="0 0 448 512">
<path d="M60.362,12.738 C60.369,12.879 60.372,13.02 60.372,13.162 C60.372,17.5 57.07,22.502 51.032,22.502 C49.178,22.502 47.453,21.959 46,21.027 C46.258,21.059 46.519,21.072 46.783,21.072 C48.322,21.072 49.736,20.549 50.859,19.668 C49.424,19.643 48.211,18.693 47.794,17.389 C47.994,17.428 48.199,17.447 48.411,17.447 C48.711,17.447 49.001,17.408 49.275,17.332 C47.775,17.031 46.643,15.703 46.643,14.113 C46.643,14.1 46.643,14.086 46.643,14.072 C47.086,14.318 47.592,14.467 48.13,14.482 C47.249,13.895 46.67,12.889 46.67,11.75 C46.67,11.148 46.832,10.586 47.114,10.1 C48.732,12.086 51.152,13.393 53.88,13.529 C53.824,13.289 53.795,13.039 53.795,12.781 C53.795,10.969 55.265,9.5 57.078,9.5 C58.021,9.5 58.875,9.898 59.474,10.535 C60.221,10.389 60.924,10.115 61.559,9.74 C61.312,10.506 60.793,11.15 60.115,11.555 C60.779,11.477 61.412,11.301 62,11.039 C61.561,11.697 61.004,12.275 60.362,12.738 Z M38,32 L70,32 L70,0 L38,0 L38,32 Z" id="icon_twitter"/>
</svg>