<svg version="1.2" xmlns="http://www.w3.org/2000/svg" viewBox="0 0 1042 652" width="1042" height="652">
	<title>linqia_lockup_white_logo-svg</title>
	<style>
		.s0 { fill: #0041c4 } 
		.s1 { fill: #000000 } 
		.s2 { fill: #8ac1d1 } 
		.s3 { fill: #002396 } 
		.s4 { fill: #ffffff } 
	</style>
	<path id="Layer" class="s0" d="m959.4 333.2q0 0.2 0 0.3 0 0.1 0 0.2 0 0.1-0.1 0.2l-0.1 0.8q-0.2 1.1-0.7 2.2-0.4 1-1.1 2-0.6 0.9-1.5 1.7-0.8 0.7-1.8 1.3c-12.1 7.3-47.7-1.7-55.9-4.3-8.3-2.7-23.8-8.3-34.7-15.9-12.2-8.6-23.9-21.4-32.9-36.2-4-6.7-7.6-13.2-11.1-19.5l-0.2-0.3-2.3-4.2c-2.9 11.6-6.4 22.1-9.8 32.3-4.8 14.1-9.3 27.4-11 41.2-0.9 7.1-0.4 17.5 0.2 27.5 0.7 11.6 1.3 23.6-0.1 32.6q-0.1 0.9-0.3 1.9-0.3 0.9-0.6 1.8-0.4 1-0.9 1.8-0.4 0.9-1 1.6-0.7 0.9-1.6 1.7-0.8 0.7-1.9 1.2-1 0.6-2.1 0.8-1.1 0.3-2.2 0.3h-0.7c-5.4-0.4-9-5.1-12-10.2-15.4-25.6-19.4-66-15.3-91.1 4.3-27.1 20.6-57.9 25.9-67.4-8.9-2.4-34.3-9.7-58.2-21.9-22.3-11.5-39.9-29-50.5-39.5q-2.4-2.4-4.3-4.3c-12.1-11.7-23-27.4-17.3-36.7q0.5-0.9 1.4-1.6 0.8-0.8 1.8-1.2 0.9-0.5 2-0.7 1.1-0.2 2.2 0 0.7 0.1 1.4 0.3 0.7 0.1 1.3 0.3 0.7 0.3 1.4 0.6 0.6 0.2 1.2 0.6 1.1 0.6 2.2 1.2 1 0.6 2 1.3 1.1 0.7 2.1 1.4 1 0.7 2 1.4 2.9 2.1 6 4.1 3 2 6.2 3.8 3.1 1.8 6.4 3.5 3.2 1.6 6.5 3.1c1 0.5 5 1.9 10 3.6 14.4 5.2 38.5 13.7 51.7 20q3.6 1.8 7.1 3.7 3.6 1.9 7 3.9 3.4 2 6.8 4.2 3.3 2.2 6.6 4.5-1.1-2.8-2.1-5.7-0.9-2.9-1.7-5.8-0.7-3-1.3-5.9-0.6-3-1-6c-2.2-14.6-0.2-32.7 4.8-45.2 5.1-12.8 11.7-23.8 18.7-35.4 2.4-4.1 5-8.3 7.4-12.6 5.1-8.8 8.6-18.9 11.4-33 2.9-14.6 8-17.9 11.7-18.1 4.5-0.3 8.5 3.7 10.8 10.7 1.4 4.3 2.6 12.9 2.9 16.3q0.8 6.2 0.9 12.4 0.1 6.3-0.4 12.5-0.4 6.2-1.5 12.4-1.1 6.1-2.7 12.2c-1.9 7-6.2 17.5-9.2 25.2-1.6 3.9-3 7.4-3.5 9-7.9 24.3-8.5 36.7-8.4 57.2 12.9-14.7 29.1-26.9 38.3-33.3 4.4-3.1 8.9-6.3 13.3-9.5q3.9-2.9 7.8-5.7c17.2-12.4 32.1-23.2 38.4-43 0.2-0.8 0.5-1.8 0.8-2.9v-0.2c3.5-11.9 6.7-23.2 15.5-22.1h0.4q1 0.2 1.9 0.6 0.8 0.4 1.6 1 0.8 0.5 1.4 1.2 0.7 0.8 1.1 1.6c5 8.2 3.5 29.7 1 38.7-4.6 17.1-13.7 42.2-38 63.4-8.6 7.5-19.7 16-30.4 24.2q-2.3 1.7-4.7 3.4-2.4 1.6-4.9 3.2-2.5 1.6-5 3.1-2.5 1.5-5 3c-4.8 2.8-9 5.3-11 7-3.4 3-3.9 6.6-1.7 10.8 1.2 2.3 2.3 4.5 3.5 6.9 4.6 9.4 10.2 15.3 23.4 27 4.5 3.9 8.7 7.3 12.8 10.6l0.1 0.1c3.5 2.7 6.8 5.4 10 8.1q1.5 1.3 3 2.4 1.5 1.2 3 2.4 1.6 1.1 3.1 2.2 1.6 1.1 3.2 2.1l3 2.1c4.6 3.1 12.1 6.7 19.4 10.1 17.1 8.2 26.8 13.1 28.4 20.4l0.2 0.8q0 0.1 0.1 0.2z"/>
	<path id="Layer" class="s1" d="m791 217.4c-3.2 0-5.8-2.7-5.8-5.9 0-3.2 2.6-5.8 5.8-5.8 3.2 0 5.8 2.6 5.8 5.8 0 3.2-2.6 5.9-5.8 5.9z"/>
	<path id="Layer" class="s2" d="m789.7 210.2c-0.7 0-1.2-0.5-1.2-1.2 0-0.6 0.5-1.2 1.2-1.2 0.7 0 1.2 0.6 1.2 1.2 0 0.7-0.5 1.2-1.2 1.2z"/>
	<path id="Layer" class="s1" d="m812.8 216.3c-3.3 0-5.9-2.6-5.9-5.8 0-3.2 2.6-5.8 5.9-5.8 3.2 0 5.8 2.6 5.8 5.8 0 3.2-2.6 5.8-5.8 5.8z"/>
	<path id="Layer" class="s2" d="m811.5 209.2c-0.7 0-1.2-0.5-1.2-1.2 0-0.7 0.5-1.2 1.2-1.2 0.6 0 1.2 0.5 1.2 1.2 0 0.7-0.6 1.2-1.2 1.2z"/>
	<path id="Layer" class="s3" d="m849.1 88.9c-0.8 4.2-1.7 8.4-2.9 12.8-1.8 7.1-6.1 17.6-9.2 25.2-1.6 4-2.9 7.4-3.5 9.1-6.9 21.5-8.2 33.6-8.3 50.3 0.2 3.7 0.1 7.1 0.1 7.1 0 0-2.4 1.5-3.5-0.4q-1.6-6.7-2.1-13.6-0.6-6.8-0.2-13.7 0.4-6.8 1.8-13.5 1.4-6.8 3.8-13.2c6.1-16.9 16.8-31.9 23.4-48.6q0.3-0.8 0.6-1.5z"/>
	<path id="Layer" class="s3" d="m947.8 114.5q-0.1 0.9-0.3 1.7-0.2 0.9-0.4 1.7-0.2 0.9-0.5 1.7c-4.6 17.1-13.7 42.2-38 63.3-8.6 7.6-19.7 16.1-30.4 24.3q-2.3 1.7-4.7 3.3-2.5 1.7-4.9 3.3-2.5 1.6-5 3.1-2.5 1.5-5 2.9c-4.8 2.9-9 5.3-11 7.1-3.4 3-3.9 6.6-1.7 10.8l0.2 0.3c-4.1-5.6-2.4-13.8 2-19.3 4.3-5.4 10.7-8.7 16.8-12.1 23.3-13.1 45.1-29.7 61.3-51q3.7-4.8 6.9-9.9 3.3-5.1 6-10.5 2.8-5.4 5-11 2.3-5.6 4-11.4-0.1 0.9-0.3 1.7z"/>
	<path id="Layer" class="s3" d="m959.1 333.1q0.1 0.2 0.1 0.3 0 0.1 0 0.2 0 0.2 0 0.3l-0.2 0.8q-0.2 1.1-0.6 2.1-0.5 1.1-1.2 2-0.6 0.9-1.5 1.7-0.8 0.8-1.8 1.3c-12.1 7.3-47.7-1.7-55.9-4.3-4.2-1.3-10.3-3.4-16.7-6.2 10.6 2.6 21.7 2.9 31.6 0.6 9.7-2.4 18.9-8.7 24-17.1 13.1 6.4 20.6 11 22 17.3l0.2 0.8q0 0.1 0 0.2z"/>
	<path id="Layer" class="s3" d="m796 334.9c-0.9 7.1-0.3 17.5 0.3 27.5 0.6 11.6 1.3 23.6-0.1 32.6q-0.1 0.9-0.4 1.9-0.2 0.9-0.6 1.8-0.3 0.9-0.8 1.8-0.5 0.8-1.1 1.6-0.6 0.9-1.5 1.7-0.9 0.7-1.9 1.2-1 0.5-2.1 0.8-1.1 0.3-2.2 0.3-0.4 0-0.7 0-0.7-0.1-1.4-0.2-0.8-0.2-1.4-0.4-0.7-0.3-1.3-0.6-0.7-0.4-1.3-0.8 1.1 0.3 2.1 0.4 1.1 0.1 2.1 0 1.1-0.1 2.1-0.5 1-0.3 1.9-0.9c5.3-3.4 5-11.2 4.3-17.4-1.6-13.7-3.7-30.2-3-43.7 1.5-27.8 9.6-52.1 21.3-77.6 1.3-2.9 4.3-8.6 4.3-8.6 0 0 0.6 1.5 1 2.3 0.5 1.1 0.7 1.6 1.7 3.8-2.9 10.9-7.1 22.2-10.3 31.8-4.8 14.2-9.3 27.5-11 41.2z"/>
	<path id="Layer" class="s3" d="m783.7 237.5c0 0-12.2-3.1-26.7-8.3q-4.1-1.4-8.1-3-4-1.6-8-3.3-4-1.8-7.9-3.6-3.9-1.9-7.8-3.8-1.6-0.9-3.2-1.8c12.2 3.9 24.7 7 37.2 9.8 9.8 2.2 19.8 4.1 25.1 12.7-0.2 0.5-0.6 1.3-0.6 1.3z"/>
	<path id="Layer" class="s4" d="m815.7 220.8q0 0 0.1 0 0-0.1 0.1-0.1 0.1 0 0.1 0 0.1 0 0.2 0 0.4 0 0.8 0.3 0.4 0.3 0.4 0.8 0.1 0.4-0.1 0.9-0.2 0.4-0.7 0.5-2.8 1.5-5.8 2.4-2.9 0.9-6.1 1.2-3.1 0.4-6.2 0.2-3.1-0.1-6.1-0.8-0.6-0.1-1.2-0.3-0.6-0.2-1.1-0.4-0.6-0.3-1.1-0.6-0.5-0.3-1-0.7-0.1 0-0.1-0.2-0.1-0.1-0.1-0.2-0.1-0.1-0.1-0.2 0-0.2 0-0.3 0-0.3 0.1-0.6 0.2-0.3 0.5-0.5 0.3-0.2 0.6-0.2 0.3 0 0.7 0.1 0.3 0.2 0.7 0.4 0.3 0.1 0.7 0.2 0.4 0.2 0.8 0.3 0.4 0.1 0.8 0.1 2.8 0.7 5.8 0.9 3 0.2 5.9-0.1 3-0.3 5.8-1.1 2.9-0.8 5.6-2.1z"/>
	<path id="Layer" class="s4" d="m58.9 436.5q17.1 3.3 34.8 6.1v135.6h86.7v32.5h-121.5z"/>
	<path id="Layer" class="s4" d="m264.7 454.7v156h-34.8v-156.2q17.2 0.4 34.8 0.2z"/>
	<path id="Layer" class="s4" d="m448 440.5q17.3-2.2 34.8-4.6v174.8h-32.8l-49.8-67.6c-15.8-21.5-35.1-49.1-35.3-49.1h-0.3c-0.2 0 0.3 25.3 0.3 60.1v56.6h-34.8v-158.4l1.9-0.1c13.5-0.9 27.1-2 40.9-3.3l40.8 54.9c12 15.8 34 47.1 34.3 47.1h0.2c0.3 0-0.2-28.6-0.2-58.1z"/>
	<path id="Layer" fill-rule="evenodd" class="s4" d="m717.1 523.2c0 46.8-31.8 82.1-74.1 89.6v31h-34.8v-31.3c-41.8-7.8-73.1-43.1-73.1-89.4 0-52.8 40.5-91.1 90.8-91.1 50.4 0 91.2 38.3 91.2 91.2zm-91.2 56.7c32.3 0 54.9-23.3 54.9-56.8 0-33.8-22.6-56.8-54.9-56.8-32 0-54.5 23-54.5 56.8 0 33.6 22.5 56.8 54.5 56.8z"/>
	<path id="Layer" class="s4" d="m769.1 440.6c11.6 4.3 23.1 8.4 34.8 11.8v158.3h-34.8z"/>
	<path id="Layer" fill-rule="evenodd" class="s4" d="m911.2 451.4c14.1-3.5 28.1-6.7 41.9-9.7l69.6 169h-37.6l-13-33.5h-75.8l-13 33.5h-37.6zm22.9 26.3c-0.2 0-4.7 14.6-8.5 24.3l-17.3 44.3h51.8l-17.2-44.3c-3.8-9.7-8.3-24.3-8.5-24.3z"/>
</svg>