<?xml version="1.0" encoding="UTF-8"?>
<svg width="60px" height="60px" viewBox="0 0 60 60" version="1.1" xmlns="http://www.w3.org/2000/svg" xmlns:xlink="http://www.w3.org/1999/xlink">
    <title>arrow-green-up</title>
    <g id="Page-1" stroke="none" stroke-width="1" fill="none" fill-rule="evenodd">
        <g id="arrow-green-up" transform="translate(30.000000, 30.000000) scale(1, -1) translate(-30.000000, -30.000000) " fill-rule="nonzero">
            <circle id="Oval" fill="#53BCAB" cx="30" cy="30" r="30"></circle>
            <path d="M29.9987,17 C30.3432,17 30.6391,17.1234 30.884,17.3701 C31.1264,17.6143 31.2489,17.9124 31.2489,18.2594 L31.2489,37.8878 L37.862,31.2157 C38.1018,30.9741 38.3978,30.8533 38.7498,30.8533 C39.107,30.8533 39.4055,30.9741 39.6428,31.2131 C39.8801,31.4521 40,31.7528 40,32.1127 C40,32.4673 39.8801,32.7655 39.6377,33.0071 L30.8866,41.8228 C30.6468,42.0644 30.3508,42.1852 29.9987,42.1852 C29.6466,42.1852 29.3507,42.0644 29.1109,41.8228 L20.3597,33.0071 C20.1199,32.7655 20,32.4673 20,32.1127 C20,31.7528 20.1199,31.4521 20.3572,31.2131 C20.5945,30.9741 20.893,30.8533 21.2502,30.8533 C21.6022,30.8533 21.8982,30.9741 22.138,31.2157 L28.7486,37.8878 L28.7486,18.2594 C28.7486,17.9124 28.871,17.6143 29.116,17.3675 C29.3609,17.1234 29.6543,17 29.9987,17 Z" id="Path" fill="#FFFFFF"></path>
        </g>
    </g>
</svg>