<svg xmlns="http://www.w3.org/2000/svg" viewBox="0 0 451.53 353.07"><defs><style>.a{isolation:isolate;}.b{fill:#0081a2;}.c{fill:#004459;}.d{fill:#001c25;}.e{fill:#fffcff;}.f{fill:#dad7d9;}.g{fill:#bebbbe;}.h{opacity:0.15;}.ad,.h{mix-blend-mode:multiply;}.i{fill:#009cc4;}.j{fill:#d5d9d9;}.k{fill:#ff5c1e;stroke:#ff5c1e;stroke-miterlimit:10;}.l{fill:#ffab43;}.m,.u{fill:#faffff;}.n{fill:#dde0e0;}.o{fill:#00baaa;}.p{fill:#00998b;}.q{opacity:0.09;}.r{fill:#00bbab;}.s{fill:#ffaa43;}.t{fill:#e8eded;}.u{font-size:12.87px;font-family:Montserrat-Regular, Montserrat;}.v,.w,.x,.y{font-family:Montserrat-Black, Montserrat;}.v{letter-spacing:-0.02em;}.x{letter-spacing:-0.03em;}.y{letter-spacing:-0.08em;}.z{fill:#00db60;}.aa{fill:#a6a9a9;}.ab{fill:#898c8c;}.ac{fill:#b8baba;}.ad{opacity:0.05;}</style></defs><title>Untitled-1</title><g class="a"><path class="b" d="M251.69,219.74h0a7.35,7.35,0,0,1-5.08-9l20-71.57a7.34,7.34,0,0,1,9-5.08h0a7.35,7.35,0,0,1,5.08,9l-20,71.57A7.35,7.35,0,0,1,251.69,219.74Z" transform="translate(-27 -62.32)"/><path class="b" d="M310.31,115.33h0a7.34,7.34,0,0,1-1.89,10.18l-28.84,19a7.34,7.34,0,0,1-10.18-1.89h0a7.34,7.34,0,0,1,1.89-10.18l28.84-19A7.34,7.34,0,0,1,310.31,115.33Z" transform="translate(-27 -62.32)"/><path class="c" d="M286.77,143.15a13.14,13.14,0,1,1-9.12-16.2A13.14,13.14,0,0,1,286.77,143.15Z" transform="translate(-27 -62.32)"/><path class="d" d="M282.29,141.9a8.49,8.49,0,1,1-5.89-10.48A8.5,8.5,0,0,1,282.29,141.9Z" transform="translate(-27 -62.32)"/><path class="c" d="M319.42,125.81l-7.33,3.65a11.7,11.7,0,0,1-15.62-5.24h0a11.69,11.69,0,0,1,5.24-15.62L309,105Z" transform="translate(-27 -62.32)"/><polygon class="c" points="292.31 48.98 299.96 63.83 314.68 63.85 322.4 51.56 316.15 51.16 311.29 57.71 303.7 57.7 297.77 46.17 292.31 48.98"/><rect class="e" x="311.34" y="23.38" width="104.2" height="68.82" rx="16.45" ry="16.45"/><polygon class="f" points="363.44 61.85 311.34 33.89 311.34 39.77 363.44 66.08 415.54 39.77 415.54 33.89 363.44 61.85"/><path class="g" d="M397.86,124.66l43.82,23.52a10.48,10.48,0,0,0,.86-4.15v-1.27l-40.27-20.33Z" transform="translate(-27 -62.32)"/><path class="g" d="M383,124.66l-4.41-2.23-40.27,20.33V144a10.32,10.32,0,0,0,.87,4.15Z" transform="translate(-27 -62.32)"/><path class="h" d="M432,85.71h-83.2a10.53,10.53,0,0,0-10.5,10.5V144a10.54,10.54,0,0,0,10.5,10.5H432a10.54,10.54,0,0,0,10.5-10.5V96.21A10.53,10.53,0,0,0,432,85.71Zm9.44,10.48-4.12,43c-.45,4.72-5,8.52-10.11,8.52H353.63c-5.11,0-9.66-3.8-10.11-8.52l-4.12-43a9.42,9.42,0,0,1,9.49-10.47H432A9.41,9.41,0,0,1,441.48,96.19Z" transform="translate(-27 -62.32)"/><polygon class="c" points="292.55 44.3 296.74 28.12 311.1 24.87 321.33 35.16 315.32 36.93 309.14 31.6 301.74 33.28 298.49 45.84 292.55 44.3"/><path class="c" d="M325.82,121.37a10.53,10.53,0,1,1,4.74-14.11A10.52,10.52,0,0,1,325.82,121.37Z" transform="translate(-27 -62.32)"/><path class="b" d="M330.56,107.26a10.53,10.53,0,0,0-14.12-4.74l-.2.11a24.92,24.92,0,0,0,9.37,18.84l.21-.1A10.52,10.52,0,0,0,330.56,107.26Z" transform="translate(-27 -62.32)"/><path class="i" d="M325.2,102.25a10.49,10.49,0,0,0,6.13,12.3,10.49,10.49,0,0,0-6.13-12.3Z" transform="translate(-27 -62.32)"/><path class="b" d="M315.21,126.53l-9.28-18.66a3.45,3.45,0,0,1,1.55-4.62h0a3.47,3.47,0,0,1,4.62,1.55l9.28,18.66a3.45,3.45,0,0,1-1.55,4.62h0A3.45,3.45,0,0,1,315.21,126.53Z" transform="translate(-27 -62.32)"/><path class="b" d="M301.71,289.38h0a7.34,7.34,0,0,0-3.35,9.8l32.78,66.7a7.34,7.34,0,0,0,9.8,3.34h0a7.34,7.34,0,0,0,3.34-9.8l-32.77-66.7A7.34,7.34,0,0,0,301.71,289.38Z" transform="translate(-27 -62.32)"/><path class="b" d="M378.43,381.3h0a7.34,7.34,0,0,0-3.72-9.66l-31.83-13.4a7.35,7.35,0,0,0-9.67,3.72h0a7.34,7.34,0,0,0,3.72,9.66L368.76,385A7.35,7.35,0,0,0,378.43,381.3Z" transform="translate(-27 -62.32)"/><circle class="c" cx="338.4" cy="364.06" r="13.14" transform="translate(-72.88 616.98) rotate(-86.46)"/><path class="d" d="M346,360.31a8.5,8.5,0,1,0-3.88,11.37A8.51,8.51,0,0,0,346,360.31Z" transform="translate(-27 -62.32)"/><path class="c" d="M385.47,369.34l-7.87-2.25a11.69,11.69,0,0,0-14.4,8h0a11.68,11.68,0,0,0,8,14.4l7.87,2.24Z" transform="translate(-27 -62.32)"/><polygon class="c" points="361.01 321.3 365.82 305.3 380.29 302.59 390.12 313.26 384.05 314.8 378.08 309.24 370.62 310.64 366.89 323.06 361.01 321.3"/><path class="e" d="M462.76,324.54H409.51a3,3,0,0,0-3,3v84.93a3,3,0,0,0,3,3h66.06a3,3,0,0,0,3-3V340.31Z" transform="translate(-27 -62.32)"/><path class="j" d="M462.76,324.54v12.64a3.49,3.49,0,0,0,3.58,3.48l12.19-.35Z" transform="translate(-27 -62.32)"/><rect class="k" x="389.41" y="270.28" width="21.91" height="21.91" rx="5.88" ry="5.88"/><path class="j" d="M467.36,364.94H417.72a1.38,1.38,0,0,1-1.37-1.37h0a1.38,1.38,0,0,1,1.37-1.37h49.64a1.38,1.38,0,0,1,1.37,1.37h0A1.38,1.38,0,0,1,467.36,364.94Z" transform="translate(-27 -62.32)"/><path class="j" d="M461.28,375H423.8a1.37,1.37,0,0,1-1.36-1.37h0a1.37,1.37,0,0,1,1.36-1.37h37.48a1.37,1.37,0,0,1,1.36,1.37h0A1.37,1.37,0,0,1,461.28,375Z" transform="translate(-27 -62.32)"/><path class="j" d="M467.36,385.12H417.72a1.38,1.38,0,0,1-1.37-1.37h0a1.38,1.38,0,0,1,1.37-1.37h49.64a1.38,1.38,0,0,1,1.37,1.37h0A1.38,1.38,0,0,1,467.36,385.12Z" transform="translate(-27 -62.32)"/><path class="j" d="M467.36,405.3H417.72a1.37,1.37,0,0,1-1.37-1.36h0a1.37,1.37,0,0,1,1.37-1.37h49.64a1.37,1.37,0,0,1,1.37,1.37h0A1.37,1.37,0,0,1,467.36,405.3Z" transform="translate(-27 -62.32)"/><path class="j" d="M461.28,395.21H423.8a1.36,1.36,0,0,1-1.36-1.37h0a1.36,1.36,0,0,1,1.36-1.36h37.48a1.36,1.36,0,0,1,1.36,1.36h0A1.36,1.36,0,0,1,461.28,395.21Z" transform="translate(-27 -62.32)"/><polygon class="c" points="362.1 325.86 369.18 341 383.89 341.57 392.07 329.58 385.83 328.94 380.74 335.31 373.15 335.01 367.66 323.26 362.1 325.86"/><circle class="c" cx="389.68" cy="382.65" r="10.53" transform="translate(-162.99 172.2) rotate(-28.74)"/><path class="b" d="M399.81,385.54a10.53,10.53,0,0,1-13,7.24l-.22-.07a24.85,24.85,0,0,1,5.77-20.23l.22,0A10.52,10.52,0,0,1,399.81,385.54Z" transform="translate(-27 -62.32)"/><path class="i" d="M395.46,391.45a10.5,10.5,0,0,1,3.77-13.22,10.5,10.5,0,0,1-3.77,13.22Z" transform="translate(-27 -62.32)"/><path class="b" d="M381.2,369.39l-5.72,20.05a3.46,3.46,0,0,0,2.37,4.26h0a3.46,3.46,0,0,0,4.26-2.37l5.71-20a3.45,3.45,0,0,0-2.36-4.26h0A3.45,3.45,0,0,0,381.2,369.39Z" transform="translate(-27 -62.32)"/><path class="b" d="M163.13,305.29h0a7.34,7.34,0,0,1-2.58,10l-64,37.84a7.33,7.33,0,0,1-10-2.57h0a7.34,7.34,0,0,1,2.58-10l64-37.84A7.35,7.35,0,0,1,163.13,305.29Z" transform="translate(-27 -62.32)"/><path class="b" d="M65.75,313h0A7.35,7.35,0,0,1,76,314.67l19.49,28.5a7.35,7.35,0,0,1-1.71,10.22h0a7.34,7.34,0,0,1-10.21-1.71L64,323.17A7.34,7.34,0,0,1,65.75,313Z" transform="translate(-27 -62.32)"/><circle class="c" cx="90.66" cy="348.73" r="13.14" transform="translate(-194.96 35.52) rotate(-31.3)"/><circle class="d" cx="90.66" cy="348.73" r="8.5" transform="translate(-203.77 44.93) rotate(-33.35)"/><path class="c" d="M76.07,303.66l3.77,7.27a11.68,11.68,0,0,1-5,15.71h0a11.69,11.69,0,0,1-15.71-5l-3.77-7.26Z" transform="translate(-27 -62.32)"/><polygon class="c" points="34.56 241.71 49.28 233.8 49.04 219.08 36.62 211.58 36.33 217.84 42.96 222.57 43.09 230.16 31.66 236.3 34.56 241.71"/><circle class="l" cx="36.07" cy="187.85" r="36.07"/><path class="m" d="M52.47,267.87a2.37,2.37,0,0,1-1.11-4.47l25-13.23L50.25,236.32a2.37,2.37,0,1,1,2.22-4.19l30.05,15.94a2.38,2.38,0,0,1,0,4.2L53.58,267.59A2.32,2.32,0,0,1,52.47,267.87Z" transform="translate(-27 -62.32)"/><path class="n" d="M57.82,260l-6.46,3.43a2.37,2.37,0,0,0,1.11,4.47,2.32,2.32,0,0,0,1.11-.28L60,264.17A7.69,7.69,0,0,0,57.82,260Z" transform="translate(-27 -62.32)"/><path class="n" d="M82.52,248.07l-8.46-4.49a9.87,9.87,0,0,0-2.23,4.2l4.51,2.39-4.51,2.38a9.85,9.85,0,0,0,2.22,4.2l8.47-4.48a2.38,2.38,0,0,0,0-4.2Z" transform="translate(-27 -62.32)"/><path class="n" d="M49.26,233.11a2.38,2.38,0,0,0,1,3.21L56,239.38a6.86,6.86,0,0,0,2.23-4.19l-5.77-3.06A2.37,2.37,0,0,0,49.26,233.11Z" transform="translate(-27 -62.32)"/><path class="m" d="M56.4,234.23a5,5,0,1,1-5-5A5,5,0,0,1,56.4,234.23Z" transform="translate(-27 -62.32)"/><path class="m" d="M57.51,265.49a5,5,0,1,1-5-5A5,5,0,0,1,57.51,265.49Z" transform="translate(-27 -62.32)"/><path class="m" d="M88.25,250.17a6.84,6.84,0,1,1-6.84-6.84A6.84,6.84,0,0,1,88.25,250.17Z" transform="translate(-27 -62.32)"/><polygon class="c" points="29.88 241.55 13.63 237.64 10.13 223.34 20.24 212.94 22.11 218.91 16.9 225.18 18.7 232.55 31.32 235.59 29.88 241.55"/><path class="c" d="M71.52,297.34a10.53,10.53,0,1,1-14.2-4.48A10.52,10.52,0,0,1,71.52,297.34Z" transform="translate(-27 -62.32)"/><path class="b" d="M57.32,292.86a10.51,10.51,0,0,0-4.48,14.19,2,2,0,0,0,.11.2,23.41,23.41,0,0,0,10.41-2.78,23.4,23.4,0,0,0,8.26-6.92c0-.07-.06-.14-.1-.21A10.52,10.52,0,0,0,57.32,292.86Z" transform="translate(-27 -62.32)"/><path class="i" d="M52.41,298.3A10.5,10.5,0,0,0,64.6,292a10.5,10.5,0,0,0-12.19,6.34Z" transform="translate(-27 -62.32)"/><path class="b" d="M76.87,307.86l-18.5,9.61A3.44,3.44,0,0,1,53.73,316h0a3.45,3.45,0,0,1,1.46-4.65l18.5-9.61a3.45,3.45,0,0,1,4.65,1.47h0A3.45,3.45,0,0,1,76.87,307.86Z" transform="translate(-27 -62.32)"/><path class="b" d="M174.35,211.44h0a6.42,6.42,0,0,0,7.51-5.05l12.51-63.78a6.43,6.43,0,0,0-5.05-7.52h0a6.43,6.43,0,0,0-7.52,5.06l-12.51,63.77A6.43,6.43,0,0,0,174.35,211.44Z" transform="translate(-27 -62.32)"/><path class="b" d="M173.46,114.86h0a6.43,6.43,0,0,0-2.52,8.7l11.21,18.15a6.43,6.43,0,0,0,8.7,2.53h0a6.44,6.44,0,0,0,2.53-8.7l-11.22-18.15A6.42,6.42,0,0,0,173.46,114.86Z" transform="translate(-27 -62.32)"/><path class="c" d="M177.07,137.82a11.49,11.49,0,1,0,13.49-9.07A11.49,11.49,0,0,0,177.07,137.82Z" transform="translate(-27 -62.32)"/><path class="d" d="M181.06,138.6a7.43,7.43,0,1,0,8.72-5.86A7.42,7.42,0,0,0,181.06,138.6Z" transform="translate(-27 -62.32)"/><path class="c" d="M162.23,119.46l4.29,5.73a10.21,10.21,0,0,0,14.26,2h0A10.22,10.22,0,0,0,182.83,113l-4.29-5.73Z" transform="translate(-27 -62.32)"/><polygon class="c" points="141.02 45.85 129.2 54.45 117.7 48.66 116.51 36.03 121.55 38.18 122.76 45.2 128.69 48.18 137.87 41.51 141.02 45.85"/><path class="o" d="M95.43,94.74,73.11,126a2,2,0,0,0,2.34,3l37.05-15.37Z" transform="translate(-27 -62.32)"/><path class="p" d="M83.46,111.5A10.59,10.59,0,0,0,94,120.88h.92l17.63-7.31L95.43,94.74Z" transform="translate(-27 -62.32)"/><rect class="o" x="62.24" width="66.58" height="53.82" rx="14.07" ry="14.07"/><path class="e" d="M128,89.23a5.51,5.51,0,1,1-5.51-5.5A5.51,5.51,0,0,1,128,89.23Z" transform="translate(-27 -62.32)"/><path class="e" d="M110.21,89.23a5.51,5.51,0,1,1-5.5-5.5A5.51,5.51,0,0,1,110.21,89.23Z" transform="translate(-27 -62.32)"/><path class="e" d="M145.86,89.23a5.5,5.5,0,1,1-5.5-5.5A5.51,5.51,0,0,1,145.86,89.23Z" transform="translate(-27 -62.32)"/><polygon class="c" points="142.68 42.1 145.76 27.82 135.83 19.63 123.79 23.65 127.79 27.39 134.71 25.66 139.83 29.88 137.43 40.97 142.68 42.1"/><path class="c" d="M159,113.48a9.21,9.21,0,1,0,1.86-12.89A9.21,9.21,0,0,0,159,113.48Z" transform="translate(-27 -62.32)"/><path class="b" d="M160.83,100.59a9.21,9.21,0,0,1,12.89,1.85l.11.17a21.69,21.69,0,0,1-14.73,11l-.13-.15A9.2,9.2,0,0,1,160.83,100.59Z" transform="translate(-27 -62.32)"/><path class="i" d="M167,98.78a9.16,9.16,0,0,1-9.62,7.2,9.19,9.19,0,0,1,9.62-7.2Z" transform="translate(-27 -62.32)"/><path class="b" d="M165.23,121.68l14.59-10.92a3,3,0,0,0,.61-4.22h0a3,3,0,0,0-4.22-.61l-14.59,10.93a3,3,0,0,0-.61,4.22h0A3,3,0,0,0,165.23,121.68Z" transform="translate(-27 -62.32)"/><path class="q" d="M328.78,408.63H173.08a9.6,9.6,0,0,1-9.57-9.57h0a9.6,9.6,0,0,1,9.57-9.57h155.7a9.59,9.59,0,0,1,9.56,9.57h0A9.59,9.59,0,0,1,328.78,408.63Z" transform="translate(-27 -62.32)"/><rect class="m" x="87.13" y="102.18" width="273.6" height="177.17" rx="11.84" ry="11.84"/><rect class="r" x="92.53" y="108.94" width="262.8" height="149.45" rx="12.29" ry="12.29"/><rect class="e" x="116.89" y="108.94" width="214.08" height="149.45"/><rect class="j" x="116.89" y="254.96" width="214.08" height="3.43"/><circle class="k" cx="175.59" cy="294.66" r="16.52" transform="translate(-183.92 148.14) rotate(-45)"/><circle class="s" cx="326.26" cy="294.66" r="16.52" transform="translate(-49.46 500.04) rotate(-79.6)"/><rect class="j" x="174.67" y="215.82" width="98.51" height="33.03" rx="4.59" ry="4.59"/><rect class="e" x="182" y="220.88" width="83.85" height="3.96" rx="1.98" ry="1.98"/><path class="e" d="M290.87,296.64H211a2,2,0,0,1-2-2h0a2,2,0,0,1,2-2h79.89a2,2,0,0,1,2,2h0A2,2,0,0,1,290.87,296.64Z" transform="translate(-27 -62.32)"/><path class="e" d="M290.87,306.11H211a2,2,0,0,1-2-2h0a2,2,0,0,1,2-2h79.89a2,2,0,0,1,2,2h0A2,2,0,0,1,290.87,306.11Z" transform="translate(-27 -62.32)"/><rect class="j" x="215.92" y="152.98" width="99.86" height="4.71"/><rect class="t" x="215.92" y="164.32" width="99.86" height="4.71"/><rect class="j" x="215.92" y="175.66" width="99.86" height="4.71"/><rect class="t" x="215.92" y="187" width="99.86" height="4.71"/><rect class="k" x="132.07" y="124.07" width="183.71" height="23.23"/><path class="t" d="M337,273H164.88a5.81,5.81,0,0,1-5.81-5.81h0a5.81,5.81,0,0,1,5.81-5.81H337a5.81,5.81,0,0,1,5.8,5.81h0A5.81,5.81,0,0,1,337,273Z" transform="translate(-27 -62.32)"/><path class="e" d="M336.92,268.66h-172a1.47,1.47,0,0,1-1.47-1.48h0a1.47,1.47,0,0,1,1.47-1.48h172a1.48,1.48,0,0,1,1.48,1.48h0A1.48,1.48,0,0,1,336.92,268.66Z" transform="translate(-27 -62.32)"/><rect class="c" x="132.07" y="152.98" width="76.32" height="38.73"/><rect class="o" x="134.43" y="155.34" width="71.61" height="34.02"/><path class="c" d="M233,252.63V245L215.8,226.56a3.14,3.14,0,0,0-4.59,0l-24.36,26.07Z" transform="translate(-27 -62.32)"/><path class="c" d="M180.55,235.54a3.14,3.14,0,0,0-4.59,0L161.43,251.1v1.53h35.08Z" transform="translate(-27 -62.32)"/><text class="u" transform="translate(136.46 140.85)">MARKETING <tspan class="v" x="83.42" y="0">A</tspan><tspan class="w" x="93.44" y="0">U</tspan><tspan class="x" x="103.13" y="0">T</tspan><tspan class="w" x="111" y="0">OM</tspan><tspan class="y" x="132.82" y="0">A</tspan><tspan class="w" x="142.08" y="0">TION</tspan></text><rect class="c" x="116.89" y="108.94" width="214.08" height="8.8"/><path class="k" d="M353.14,175.66a1.93,1.93,0,1,1-1.93-1.93A1.93,1.93,0,0,1,353.14,175.66Z" transform="translate(-27 -62.32)"/><path class="s" d="M336.28,175.66a1.93,1.93,0,1,1-1.93-1.93A1.93,1.93,0,0,1,336.28,175.66Z" transform="translate(-27 -62.32)"/><path class="z" d="M344.71,175.66a1.93,1.93,0,1,1-1.93-1.93A1.93,1.93,0,0,1,344.71,175.66Z" transform="translate(-27 -62.32)"/><path class="aa" d="M251.38,341.73h35.49s4.72,32,24.42,51.78H191c19.7-19.74,24.42-51.78,24.42-51.78h35.49" transform="translate(-27 -62.32)"/><path class="ab" d="M301.88,381.65c-16.2,1.36-33.2,2.09-50.73,2.09s-34.52-.73-50.72-2.09A71.06,71.06,0,0,1,191,393.51H311.29A70.55,70.55,0,0,1,301.88,381.65Z" transform="translate(-27 -62.32)"/><rect class="j" x="156.82" y="327.76" width="134.67" height="13.28" rx="6.64" ry="6.64"/><path class="ac" d="M312.6,398.15H189.71a5.94,5.94,0,0,1-5.41-4,7.21,7.21,0,0,0-.48,2.61c0,3.65,2.65,6.64,5.89,6.64H312.6c3.24,0,5.89-3,5.89-6.64a7.21,7.21,0,0,0-.48-2.61A5.94,5.94,0,0,1,312.6,398.15Z" transform="translate(-27 -62.32)"/><path class="ab" d="M251.15,353.07A257.35,257.35,0,0,1,290.32,356a107.12,107.12,0,0,1-3.45-14.28H215.44A107.12,107.12,0,0,1,212,356,257.32,257.32,0,0,1,251.15,353.07Z" transform="translate(-27 -62.32)"/><path class="j" d="M114.13,327.55v6.56a7.58,7.58,0,0,0,7.56,7.56H380.17a7.58,7.58,0,0,0,7.56-7.56v-6.56Z" transform="translate(-27 -62.32)"/><circle class="m" cx="223.93" cy="272.29" r="4.32"/><path class="ab" d="M253.54,334.61a2.61,2.61,0,1,1-2.61-2.61A2.61,2.61,0,0,1,253.54,334.61Z" transform="translate(-27 -62.32)"/><path class="ad" d="M382.33,179.11V312.86a7.87,7.87,0,0,1-7.85,7.85H127.38Z" transform="translate(-27 -62.32)"/><path class="s" d="M198.83,228a6.72,6.72,0,1,1-6.72-6.72A6.72,6.72,0,0,1,198.83,228Z" transform="translate(-27 -62.32)"/></g></svg>