<svg width="140px" height="33px" viewBox="0 0 140 33" preserveAspectRatio="xMidYMid meet" version="1.1" xmlns="http://www.w3.org/2000/svg" xmlns:xlink="http://www.w3.org/1999/xlink">
<g stroke="none" stroke-width="1" fill="none" fill-rule="evenodd">
<path d="M111.377778,14 L111.377778,32.9777778 L106.088889,32.9777778 L106.088889,31.7333333 C102.288661,33.9790347 97.3807333,32.9754367 94.5777778,29.5555556 C91.6884667,26.0304134 91.6884667,21.0459449 94.5777778,17.7333333 C97.352272,14.1356467 102.190709,13.1176424 106.088889,15.2444444 L106.088889,14 L111.377778,14 Z M30.4888889,16.1777778 C34.1774883,13.0578235 39.5710131,13.3890338 42.9333333,16.8 C43.3838046,17.2151658 43.7655631,17.6818049 44.1777778,18.3555556 L40.4444444,22.4 L35.1555556,27.6888889 C36.4577688,28.1656709 38.1335407,27.7804897 39.2,26.4444444 L45.4222222,20.8444444 C46.7319258,25.2369262 44.5180343,30.1664913 40.1333333,32.0444444 C35.7663117,34.110743 30.6069546,32.504175 28,28.3111111 C25.6413696,24.2885021 26.6172654,18.9734386 30.4888889,16.1777778 Z M126.311111,14 L126.311111,15.2444444 C129.062134,13.6446371 132.581978,13.7568228 135.333333,15.5555556 C138.202971,17.1508694 139.926181,20.1457497 140,23.6444444 L140,32.9777778 L134.711111,32.9777778 L134.711111,23.6444444 C134.850459,21.1678434 132.902166,19.2742884 130.666667,19.2888889 C128.171059,19.2742884 126.243597,21.1163205 126.311111,23.6444444 L126.311111,32.9777778 L121.022222,32.9777778 L121.022222,14 L126.311111,14 Z M8.08888889,14 L19.6,25.5111111 L19.6,14 L29.8666667,14 C26.6254652,16.1103873 24.7484732,19.5761243 24.5777778,23.3333333 L24.5777778,23.6444444 C24.6967139,27.2259337 26.5854743,30.7529739 29.8666667,32.9777778 L19.6,32.9777778 L8.08888889,21.4666667 L8.08888889,32.9777778 L0,32.9777778 L0,14 L8.08888889,14 Z M118.844444,14 L118.844444,32.9777778 L113.555556,32.9777778 L113.555556,14 L118.844444,14 Z M92.7111111,14 C93.5236074,14.0035022 94.4372971,14.1447012 95.2,14.3111111 L95.5111111,14.6222222 C93.7705926,15.6612378 92.4077467,17.3187545 91.4666667,19.2888889 C89.6341956,19.6986157 88.2373946,21.4056836 88.0444444,23.6444444 L88.0444444,32.9777778 L83.0666667,32.9777778 L83.0666667,23.6444444 C83.0819273,18.2472895 87.3473889,14 92.7111111,14 Z M71.5555556,0 L71.8666667,0 C75.7315693,0.0718818549 79.1558012,2.46125736 80.5777778,6.22222222 C81.9661321,9.69836368 81.0181277,13.834352 78.0888889,16.4888889 C81.0163025,19.1505646 81.9577646,23.2921338 80.5777778,26.7555556 C79.1308849,30.5302577 75.6984897,32.9146995 71.8666667,32.9777778 L71.5555556,32.9777778 L58.8,32.9777778 L58.8,27.6888889 L71.5555556,27.6888889 C74.1051363,27.8018578 76.003893,25.8461105 75.9111111,23.3333333 C76.003893,21.0969162 74.1568007,19.1620796 71.5555556,18.9777778 L58.8,18.9777778 L58.8,14 L71.5555556,14 C74.1068141,13.8724158 76.006919,11.9152978 75.9111111,9.64444444 C76.006919,7.16276025 74.1585152,5.22656748 71.5555556,5.28888889 L58.8,5.28888889 L58.8,0 L71.5555556,0 Z M52.5777778,8.71111111 L52.5777778,14 L57.2444444,14 L57.2444444,19.2888889 L52.8888889,19.2888889 L52.8888889,23.3333333 C52.8430161,25.8627859 54.7475232,27.8055072 57.2444444,27.6888889 L57.2444444,32.9777778 L56.9333333,32.9777778 C51.9678422,32.8968474 47.8584168,28.7609074 47.9111111,23.6444444 L47.9111111,23.3333333 L47.9111111,19.2888889 L46.6666667,19.2888889 C45.9068374,17.037563 44.5341745,15.3034929 42.6222222,14 L47.9111111,14 L47.9111111,8.71111111 L52.5777778,8.71111111 Z M101.733333,18.9777778 C99.3945984,18.980387 97.3777778,20.999315 97.3777778,23.6444444 C97.3777778,25.9784628 99.3945984,27.9973908 101.733333,28 C104.340557,28.0025644 106.340814,26.0412616 106.4,23.6444444 L106.4,23.3333333 C106.394792,20.989883 104.373752,18.9751787 101.733333,18.9777778 Z M37.9555556,19.2888889 C36.310866,18.6315747 34.398602,18.9720716 32.9777778,20.2222222 C31.7689595,21.5473697 31.3882335,23.447826 32.0444444,25.2 L37.9555556,19.2888889 Z M116.666667,4.66666667 C117.624778,4.66584529 118.693057,5.10764676 119.466667,5.91111111 C120.268518,6.68194324 120.711111,7.74989495 120.711111,8.71111111 C120.712365,10.5625006 119.689879,12.0949027 118.222222,12.7555556 C116.55126,13.3970001 114.744283,13.0384379 113.555556,11.8222222 C112.340648,10.6365795 111.98075,8.82986811 112.622222,7.15555556 C113.280526,5.69028758 114.812172,4.66666667 116.666667,4.66666667 Z" fill="#2F3F49" fill-rule="nonzero"></path>
</g>
</svg>