<?xml version="1.0" encoding="utf-8"?>
<!-- Generator: Adobe Illustrator 16.0.0, SVG Export Plug-In . SVG Version: 6.00 Build 0)  -->
<!DOCTYPE svg PUBLIC "-//W3C//DTD SVG 1.1//EN" "http://www.w3.org/Graphics/SVG/1.1/DTD/svg11.dtd">
<svg version="1.1" id="Layer_1" xmlns="http://www.w3.org/2000/svg" xmlns:xlink="http://www.w3.org/1999/xlink" x="0px" y="0px"
	 width="41.833px" height="42.5px" viewBox="0 0 41.833 42.5" enable-background="new 0 0 41.833 42.5" xml:space="preserve">
<path fill-rule="evenodd" clip-rule="evenodd" fill="#918B84" d="M25.963,29.59c0,0.306,0.248,0.555,0.556,0.555h2.755
	c0.306,0,0.554-0.249,0.554-0.555v-5.209c0-2.266,0.026-6.387-4.386-6.387c-1.993,0-2.929,0.729-3.559,1.674v-0.939
	c0-0.306-0.248-0.555-0.555-0.555h-2.665c-0.305,0-0.554,0.249-0.554,0.555V29.59c0,0.306,0.249,0.555,0.554,0.555h2.665
	c0.307,0,0.555-0.249,0.555-0.555v-5.823c0.069-0.782,0.414-2.527,2.111-2.527c2.19,0,1.969,2.548,1.969,3.301V29.59z"/>
<path fill-rule="evenodd" clip-rule="evenodd" fill="#918B84" d="M14.522,17.16c1.349,0,2.439-1.092,2.439-2.439
	s-1.091-2.439-2.439-2.439c-1.347,0-2.438,1.092-2.438,2.439S13.175,17.16,14.522,17.16"/>
<path fill-rule="evenodd" clip-rule="evenodd" fill="#918B84" d="M15.806,18.174H13.24c-0.334,0-0.604,0.271-0.604,0.604v10.763
	c0,0.333,0.271,0.604,0.604,0.604h2.566c0.333,0,0.604-0.271,0.604-0.604V18.778C16.41,18.445,16.139,18.174,15.806,18.174"/>
<circle fill="none" stroke="#918B84" stroke-width="2" stroke-miterlimit="10" cx="20.955" cy="21.213" r="19.546"/>
</svg>
