<?xml version="1.0" encoding="utf-8"?>
<!-- Generator: Adobe Illustrator 16.0.0, SVG Export Plug-In . SVG Version: 6.00 Build 0)  -->
<!DOCTYPE svg PUBLIC "-//W3C//DTD SVG 1.1//EN" "http://www.w3.org/Graphics/SVG/1.1/DTD/svg11.dtd">
<svg version="1.1" id="Layer_1" xmlns="http://www.w3.org/2000/svg" xmlns:xlink="http://www.w3.org/1999/xlink" x="0px" y="0px"
	 width="42.333px" height="42.333px" viewBox="0 0 42.333 42.333" enable-background="new 0 0 42.333 42.333" xml:space="preserve">
<path fill-rule="evenodd" clip-rule="evenodd" fill="#918B84" d="M32.208,12.126c-0.921,0.549-1.937,0.937-3.021,1.153
	c-0.875-0.931-2.121-1.507-3.479-1.507c-2.639,0-4.763,2.141-4.763,4.765c0,0.378,0.033,0.741,0.112,1.087
	c-3.961-0.194-7.466-2.092-9.821-4.984c-0.411,0.714-0.652,1.529-0.652,2.408c0,1.65,0.85,3.113,2.116,3.96
	c-0.765-0.015-1.516-0.237-2.152-0.587v0.052c0,2.316,1.651,4.238,3.817,4.681c-0.388,0.105-0.81,0.157-1.25,0.157
	c-0.304,0-0.612-0.018-0.901-0.081c0.617,1.887,2.369,3.273,4.451,3.318c-1.62,1.269-3.679,2.032-5.907,2.032
	c-0.391,0-0.765-0.018-1.14-0.065c2.111,1.36,4.611,2.138,7.309,2.138c8.766,0,13.56-7.263,13.56-13.557
	c0-0.21-0.008-0.414-0.018-0.616c0.945-0.67,1.74-1.509,2.388-2.473c-0.864,0.379-1.785,0.63-2.745,0.752
	C31.101,14.169,31.855,13.244,32.208,12.126"/>
<circle fill="none" stroke="#918B84" stroke-width="2" stroke-miterlimit="10" cx="21.238" cy="21.213" r="19.546"/>
</svg>
