<?xml version="1.0" encoding="utf-8"?>
<!-- Generator: Adobe Illustrator 16.0.0, SVG Export Plug-In . SVG Version: 6.00 Build 0)  -->
<!DOCTYPE svg PUBLIC "-//W3C//DTD SVG 1.1//EN" "http://www.w3.org/Graphics/SVG/1.1/DTD/svg11.dtd">
<svg version="1.1" id="Layer_1" xmlns="http://www.w3.org/2000/svg" xmlns:xlink="http://www.w3.org/1999/xlink" x="0px" y="0px"
	 width="42.75px" height="43.25px" viewBox="0 0 42.75 43.25" enable-background="new 0 0 42.75 43.25" xml:space="preserve">
<path fill-rule="evenodd" clip-rule="evenodd" fill="#918B84" d="M28.698,19.702H14.264c-1.931,0-3.51,1.491-3.51,3.313v7.593
	c0,1.821,1.579,3.311,3.51,3.311h14.435c1.93,0,3.509-1.489,3.509-3.311v-7.593C32.207,21.193,30.628,19.702,28.698,19.702
	 M13.735,31.432v-8.021l-1.49-0.005v-1.165l4.77,0.007v1.186h-1.789l0.001,7.998H13.735z M19.393,31.429l0.003-0.883
	c-0.321,0.691-1.608,1.247-2.279,0.764c-0.36-0.26-0.348-0.711-0.383-1.1c-0.021-0.22-0.005-0.704-0.006-1.353l-0.005-4.233h1.483
	l0.006,4.3c0.001,0.589-0.031,0.931,0.005,1.043c0.213,0.647,0.758,0.296,0.879-0.035c0.04-0.109,0.003-0.418,0.003-1.036v-4.271
	h1.491l0.001,6.806L19.393,31.429z M22.815,30.786l-0.112,0.568l-1.226,0.018l0.008-9.122l1.489-0.002l-0.006,2.644
	c1.376-1.097,2.391-0.285,2.392,1.069l0.003,3.555C25.365,31.238,24.38,32.223,22.815,30.786 M26.261,29.049V26.93
	c0-0.636,0.063-1.137,0.19-1.503c0.126-0.365,0.343-0.639,0.626-0.843c0.903-0.651,2.691-0.45,2.875,0.824
	c0.059,0.403,0.077,1.107,0.077,1.813v0.964h-2.563v0.886v0.687v0.068c0,0.335,0.276,0.607,0.612,0.607h0.219
	c0.336,0,0.611-0.272,0.611-0.607v-0.624c0.001-0.055,0.003-0.106,0.003-0.151l1.119-0.006
	C30.541,32.075,26.262,32.573,26.261,29.049"/>
<path fill-rule="evenodd" clip-rule="evenodd" fill="#918B84" d="M28.917,26.185c0-0.365-0.301-0.663-0.668-0.663h-0.09
	c-0.365,0-0.665,0.298-0.665,0.663l-0.007,0.821H28.9L28.917,26.185z"/>
<path fill-rule="evenodd" clip-rule="evenodd" fill="#918B84" d="M23.601,25.246c-0.357,0-0.65,0.241-0.65,0.536v3.991
	c0,0.294,0.293,0.535,0.65,0.535c0.36,0,0.653-0.24,0.653-0.535v-3.991C24.254,25.487,23.961,25.246,23.601,25.246"/>
<path fill-rule="evenodd" clip-rule="evenodd" fill="#918B84" d="M24.122,10.96v4.77c0,0.607,0.011,1.012,0.028,1.218
	c0.019,0.203,0.066,0.399,0.143,0.589c0.077,0.187,0.196,0.339,0.359,0.453c0.16,0.113,0.365,0.169,0.611,0.169
	c0.214,0,0.404-0.058,0.57-0.178c0.165-0.119,0.306-0.297,0.418-0.535l-0.027,0.585h1.663V10.96h-1.31v5.503
	c0,0.299-0.246,0.542-0.546,0.542c-0.298,0-0.545-0.243-0.545-0.542V10.96H24.122z"/>
<polygon fill-rule="evenodd" clip-rule="evenodd" fill="#918B84" points="16.678,11.635 15.678,8.175 13.981,8.175 15.952,12.833 
	15.955,18.254 17.524,18.254 17.526,12.83 19.379,8.184 17.663,8.184 "/>
<path fill-rule="evenodd" clip-rule="evenodd" fill="#918B84" d="M19.346,16.81c0.063,0.309,0.166,0.575,0.313,0.793
	c0.145,0.217,0.349,0.381,0.612,0.49s0.582,0.162,0.961,0.162c0.341,0,0.64-0.063,0.902-0.19c0.26-0.126,0.475-0.324,0.64-0.588
	c0.17-0.267,0.277-0.552,0.328-0.859c0.053-0.306,0.078-0.789,0.078-1.445v-1.789c0-0.518-0.027-0.902-0.084-1.157
	c-0.055-0.252-0.156-0.497-0.308-0.737c-0.147-0.238-0.361-0.431-0.637-0.58c-0.276-0.148-0.605-0.223-0.99-0.223
	c-0.458,0-0.834,0.116-1.127,0.348c-0.294,0.231-0.499,0.537-0.612,0.918c-0.112,0.382-0.169,0.912-0.169,1.591l-0.001,1.872
	C19.253,16.036,19.284,16.501,19.346,16.81 M20.557,12.588c0-0.399,0.298-0.727,0.661-0.727s0.66,0.328,0.66,0.727v3.765
	c0,0.4-0.297,0.727-0.66,0.727s-0.661-0.327-0.661-0.727V12.588z"/>
<circle fill="none" stroke="#918B84" stroke-width="2" stroke-miterlimit="10" cx="21.48" cy="22.046" r="19.546"/>
</svg>
