<svg height="38" viewBox="0 0 174 38" width="174" xmlns="http://www.w3.org/2000/svg" xmlns:xlink="http://www.w3.org/1999/xlink"><mask id="a" fill="#fff"><path d="m0 .42026191h33.8872632v37.55259519h-33.8872632z" fill="#fff" fill-rule="evenodd"/></mask><mask id="b" fill="#fff"><path d="m.40493613.38479741h121.03024887v37.58805969h-121.03024887z" fill="#fff" fill-rule="evenodd"/></mask><g fill="#ff5e54" fill-rule="evenodd"><path d="m30.7243684 11.4999762v-9.22902382c-2.4623158-.92557143-7.0957105-1.85069047-11.284421-1.85069047-11.89418424 0-19.4399474 7.64840476-19.4399474 19.27911909 0 10.4445714 6.32131579 18.300619 19.3451053 18.300619 3.9873947 0 8.6051315-.7794524 10.927421-1.6082143v-11.413119h3.6147369v-4.3405953h-13.1029737v4.3405953h4.0665789v8.0845c-2.010921.5256666-4.3806316.6491666-6.133421.6491666-7.3721842 0-12.29681582-5.8782381-12.29681582-14.2255714 0-9.3366905 4.54750002-14.78064285 13.15486842-14.78064285 2.5822105 0 4.6244474.5342619 5.9531316.90702381v5.88683334h5.2386842z" mask="url(#a)"/><path d="m47.6665215 36.9678908v-4.0417489h-3.5298215v-7.9042212c.0474532-4.4903861 2.0513714-9.1083172 6.7757946-9.1083172 1.0962124 0 1.8458859.1444916 2.5145842.3893244l.5729212-4.8605341c-.4775795-.1980069-1.7170222-.4423938-3.0065303-.4423938-3.5781454 0-6.298215 2.8501398-7.2511972 7.6446716l-.0957771-.184628c.2864606-2.535737.2864606-5.1178539.2864606-7.0176498h-8.932956v4.0413029h3.7374837v17.4424452h-3.1144972v4.0738581z"/><g transform="translate(52)"><path d="m6.007846 24.9691667c0-4.5333096 2.14702886-9.116381 7.9631351-9.116381 4.0849701 0 7.2815459 2.561381 7.2815459 8.3292381 0 5.0250476-2.3579426 9.2131905-7.7015473 9.2131905-5.2892784 0-7.5431337-4.138381-7.5431337-8.4260476zm-5.60290987.1963333c0 6.5056905 3.46683758 12.7955952 12.98899957 12.7955952 9.1893566 0 13.4615012-5.8949762 13.4615012-13.1882619 0-6.3089047-2.9920534-13.4859285-12.779912-13.4859285-8.30507099 0-13.67058877 5.5023095-13.67058877 13.8785952z" mask="url(#b)"/><path d="m99.5261778 31.9430714c-2.1383549 1.1544762-4.8688205 2.0868334-8.1028312 2.0868334-5.1258431 0-8.8077032-3.2603096-8.8579207-8.3292381h18.1431471v-.6966667c0-7.9818095-3.7521646-13.7537381-11.425864-13.7537381-8.2895492 0-12.320193 6.0030952-12.320193 13.6261667 0 8.1220476 4.8427987 13.0778809 13.3656313 13.1235714 3.8827302 0 7.2034804-.9667381 8.9127034-1.6570714zm-16.9607519-9.9103095c.1981311-3.2385952 1.8530279-6.7345952 6.5803262-6.7345952 4.7272982 0 6.1192376 4.0610238 6.1192376 6.2722619v.4623333z" mask="url(#b)"/><path d="m102.294991 37.5684286h12.607346v-4.0999286h-3.70149v-8.018c.050217-4.5550238 2.151594-9.2394286 7.105328-9.2394286 1.149525 0 1.828832.1465715 2.528226.3949286l.600784-4.9305c-.500806-.2008571-1.800528-.4487619-3.153206-.4487619-3.751708 0-6.601783 2.8911667-7.603851 7.7547143l-.099979-.1872857c.300392-2.5722381.300392-5.1915238.300392-7.1186667h-9.258748v4.0994762h3.919709v17.6935238h-3.266424v4.1325z" mask="url(#b)"/><path d="m50.6772767 17.5777143v-3.1806905s-6.3009339-3.8646905-6.3493254-6.76445237c-.040174-1.28159524.863742-2.33292857 2.7679005-2.37454762 1.9356586-.0262381 2.7637918 1.2825 3.5814249 2.06828571 0-.16466666 0-5.24128571 0-6.13745238-4.937299-2.24064285-11.2651678.31033334-11.2651678 6.29804762-.029674 4.73190474 4.8615161 8.18583334 5.585562 8.82911904v6.8146667l-9.0391604-7.3172619h3.1011625v-4.0931429h-11.8759959v4.0931429h3.0806189l9.8189021 8.1668333-11.0537975 9.4859762h-2.8783791v4.0931429h12.3923237v-4.0931429h-3.1947498l9.6490755-8.7811667v8.7811667h-3.0979668v4.0931429h8.7775726z" mask="url(#b)"/><path d="m52.7425879 17.5777143v-3.1806905s6.3009339-3.8646905 6.3493254-6.76445237c.0406306-1.28159524-.863742-2.33292857-2.767444-2.37454762-1.9361151-.0262381-2.7637917 1.2825-3.5818814 2.06828571 0-.16466666 0-5.24128571 0-6.13745238 4.9377555-2.24064285 11.2651678.31033334 11.2651678 6.29804762.029674 4.73190474-4.8615161 8.18583334-5.585562 8.82911904v6.8146667l9.0396169-7.3172619h-3.101619v-4.0931429h11.8759959v4.0931429h-3.0806189l-9.5605099 8.1668333 10.7954053 9.4859762h2.8783791v4.0931429h-12.3923237v-4.0931429h3.1947497l-9.6490754-8.7811667v8.7811667h3.0984233v4.0931429h-8.7780291z" mask="url(#b)"/></g><path d="m170.281826 35.427348h.160434c.18683 0 .338191-.0635968.338191-.2181665 0-.1364593-.097745-.2274322-.311383-.2274322-.089084 0-.151361.0092657-.187242.0185315zm-.008661.8457111h-.338604v-1.491366c.133627-.0269549.320869-.0454864.560902-.0454864.275915 0 .40088.0454864.507699.1090832.080011.0635968.142288.1819458.142288.3276709 0 .1634143-.124554.2906079-.302722.3453601v.0181104c.1427.054331.222711.1634143.267253.3634704.044542.2274323.070937.3184052.106819.3731574h-.364999c-.044542-.0547522-.07135-.1912116-.115892-.3638916-.026808-.1638355-.11548-.2362769-.302722-.2362769h-.160022zm-.899093-.7821143c0 .6637653.480478 1.1910712 1.139538 1.1910712.640913 0 1.11273-.5273059 1.11273-1.1818054 0-.6637653-.471817-1.200337-1.121803-1.200337-.649987 0-1.130465.5365717-1.130465 1.1910712zm2.625928 0c0 .8457111-.649574 1.5090552-1.495463 1.5090552-.836816 0-1.504537-.6633441-1.504537-1.5090552 0-.8271795.667721-1.4909448 1.504537-1.4909448.845889 0 1.495463.6637653 1.495463 1.4909448z"/></g></svg>