<?xml version="1.0" encoding="UTF-8"?>
<svg width="21px" height="17px" viewBox="0 0 21 17" version="1.1" xmlns="http://www.w3.org/2000/svg" xmlns:xlink="http://www.w3.org/1999/xlink">
    <title>Group 3</title>
    <defs>
        <polygon id="path-1" points="0 -0.000235186972 19.9999 -0.000235186972 19.9999 16.2555012 0 16.2555012"></polygon>
    </defs>
    <g id="Symbols" stroke="none" stroke-width="1" fill="none" fill-rule="evenodd">
        <g id="Footer" transform="translate(-1217.000000, -51.000000)">
            <g id="Group-3" transform="translate(1217.063413, 51.000000)">
                <mask id="mask-2" fill="white">
                    <use xlink:href="#path-1"></use>
                </mask>
                <g id="Clip-2"></g>
                <path d="M19.9609,1.9365 C19.2119,2.2655 18.4189,2.4835 17.6069,2.5825 C18.4619,2.0685 19.1019,1.2615 19.4089,0.3125 C18.6169,0.7755 17.7379,1.1125 16.8029,1.2995 C16.1869,0.6395 15.3689,0.2025 14.4779,0.0545 C13.5869,-0.0925 12.6719,0.0585 11.8759,0.4845 C11.0789,0.9105 10.4459,1.5865 10.0729,2.4105 C9.7009,3.2325 9.6109,4.1555 9.8169,5.0345 C6.4079,4.8745 3.3889,3.2365 1.3669,0.7625 C0.9989,1.3875 0.8069,2.1005 0.8119,2.8255 C0.8119,4.2495 1.5369,5.5025 2.6349,6.2395 C1.9839,6.2175 1.3479,6.0415 0.7779,5.7255 L0.7779,5.7755 C0.7779,6.7225 1.1049,7.6405 1.7049,8.3735 C2.3039,9.1065 3.1389,9.6105 4.0669,9.7975 C3.4649,9.9585 2.8359,9.9835 2.2229,9.8695 C2.4869,10.6835 2.9979,11.3965 3.6859,11.9065 C4.3739,12.4165 5.2039,12.7005 6.0599,12.7155 C4.6089,13.8545 2.8189,14.4725 0.9749,14.4705 C0.6499,14.4705 0.3259,14.4515 -0.0001,14.4155 C1.8799,15.6185 4.0649,16.2565 6.2969,16.2555012 C13.8419,16.2555012 17.9619,10.0085 17.9619,4.6015 C17.9619,4.4265 17.9619,4.2505 17.9499,4.0765 C18.7549,3.4975 19.4489,2.7775 19.9999,1.9535 L19.9609,1.9365 Z" id="Fill-1" fill="#FFFFFF" mask="url(#mask-2)"></path>
            </g>
        </g>
    </g>
</svg>