<?xml version="1.0" encoding="UTF-8"?>
<svg width="21px" height="20px" viewBox="0 0 21 20" version="1.1" xmlns="http://www.w3.org/2000/svg" xmlns:xlink="http://www.w3.org/1999/xlink">
    <title>Shape</title>
    <g id="Symbols" stroke="none" stroke-width="1" fill="none" fill-rule="evenodd">
        <g id="Footer" transform="translate(-1249.000000, -49.000000)" fill="#FFFFFF" fill-rule="nonzero">
            <g id="Shape">
                <path d="M1259.93514,49 C1254.41227,49 1249.93516,53.4771162 1249.93516,59 C1249.93516,64.5228838 1254.41227,69 1259.93514,69 C1265.45802,69 1269.93516,64.5228838 1269.93516,59 C1269.93516,53.4771162 1265.45794,49 1259.93514,49 Z M1257.26713,63.8345416 L1255.07153,63.8345416 L1255.07153,56.7411788 L1257.26713,56.7411788 L1257.26713,63.8345416 Z M1256.15887,55.8122502 C1255.44181,55.8122502 1254.86051,55.2262075 1254.86051,54.503404 C1254.86051,53.7805201 1255.44189,53.1945175 1256.15887,53.1945175 C1256.87585,53.1945175 1257.45715,53.7805201 1257.45715,54.503404 C1257.45719,55.2262476 1256.87589,55.8122502 1256.15887,55.8122502 L1256.15887,55.8122502 Z M1265.49517,63.8345416 L1263.31018,63.8345416 L1263.31018,60.1111156 C1263.31018,59.0898885 1262.92227,58.5198313 1262.11476,58.5198313 C1261.23592,58.5198313 1260.77679,59.1135455 1260.77679,60.1111156 L1260.77679,63.8345416 L1258.67096,63.8345416 L1258.67096,56.7411788 L1260.77679,56.7411788 L1260.77679,57.6965358 C1260.77679,57.6965358 1261.41023,56.5248117 1262.91431,56.5248117 C1264.41844,56.5248117 1265.49517,57.4432172 1265.49517,59.3431268 L1265.49517,63.8345416 L1265.49517,63.8345416 Z"></path>
            </g>
        </g>
    </g>
</svg>