<?xml version="1.0" encoding="UTF-8"?><svg id="Layer_2" xmlns="http://www.w3.org/2000/svg" viewBox="0 0 513.13 120"><defs><style>.cls-1{fill:#fff;}</style></defs><g id="Artwork"><g id="Logo_White-Cutout"><g><polygon class="cls-1" points="383.52 47.38 374.3 79.39 363.38 47.38 353.04 47.38 342.12 79.38 332.72 47.38 322.35 47.38 336.54 91.11 346.77 91.11 357.93 58.02 369.37 91.11 379.33 91.11 393.34 47.38 383.52 47.38"/><path class="cls-1" d="M424.08,91.11h8.97c-.16-1.02-.46-3.37-.46-6.69v-22.2c0-4.88-1.8-16.23-18.52-16.23-11.32,0-17.36,7.05-18.29,13.75l8.8,2c.72-4.93,4.35-7.97,9.58-7.97,5.58,0,8.91,2.71,8.91,7.26,0,2.09-1.25,3.33-3.71,3.68l-11.46,1.74c-8.32,1.2-13.08,5.95-13.08,13.02,0,8.45,7.56,13.01,14.66,13.01,8.22,0,12.08-4.78,13.36-6.84l.87-1.4v1.65c0,2.81,.23,4.53,.36,5.22Zm-1.01-18.06c0,7.76-4.11,12.03-11.57,12.03-4.8,0-6.98-3.24-6.98-6.25,0-3.47,2.32-5.85,6.36-6.52l12.2-1.82v2.56Z"/><path class="cls-1" d="M464.5,56.71c.98,0,2.01,.07,3.02,.2v-9.89c-.5-.08-1.38-.2-2.37-.2-5.81,0-10.49,2.77-12.5,7.42l-.9,2.08v-8.95h-9.43v43.73h9.7v-20.81c0-8.89,4.32-13.59,12.49-13.59Z"/><path class="cls-1" d="M491.77,46.07c-10.46,0-21.27,8.61-21.27,23.01,0,11.66,7.68,23.47,22.37,23.47,11.18,0,17.41-6.81,19.59-13.35l-8.11-2.56c-1.84,5.03-5.81,7.68-11.49,7.68-6.95,0-12.39-5.2-12.67-12.1l-.02-.49h32.77c.07-.5,.18-1.62,.18-2.92,0-14.03-8.19-22.74-21.36-22.74Zm-11.33,18.81l.04-.51c.39-5.01,4.51-10.34,11.39-10.34,8.21,0,11.31,5.58,11.48,10.36l.02,.49h-22.92Z"/><path class="cls-1" d="M312.11,91.66c3.25,0,5.18-.53,6.04-.86v-7.93c-.77,.12-2.06,.28-3.2,.28-4.26,0-6.16-1.87-6.16-6.07v-21.2h9.27v-8.51h-9.27v-13.67h-8.69v6.23c0,4.66-2.75,7.44-7.35,7.44h-14.82v-6.34c0-6.74,5.41-7.26,7.07-7.26,1.28,0,2.4,.11,3.38,.33v-8.17c-.8-.3-2.69-.76-5.12-.76-9.19,0-15.12,6.12-15.12,15.58v6.62h-7.8v8.32h7.8v35.41h9.79V55.7h21.26v23.13c0,8.03,4.83,12.83,12.92,12.83Z"/><path class="cls-1" d="M234.82,46c-13.12,0-22.65,9.76-22.65,23.2s9.52,23.29,22.65,23.29,22.74-9.79,22.74-23.29-9.56-23.2-22.74-23.2Zm0,37.89c-6.24,0-12.95-4.6-12.95-14.69,0-6.99,4.05-14.51,12.95-14.51,6.44,0,12.95,4.49,12.95,14.51s-6.5,14.69-12.95,14.69Z"/><path class="cls-1" d="M191.71,92.47c10.77,0,16.41-6.96,16.41-13.84s-4.55-11.39-12.47-13.12l-6.78-1.37c-3.01-.6-4.87-2.57-4.87-5.14,0-3.15,3.03-5.61,6.89-5.61,5.39,0,7.96,3.3,8.63,6.57l8.08-2.31c-2.19-11.34-15.21-11.67-16.71-11.67-8.79,0-15.95,6.25-15.95,13.93,0,6.26,4.35,10.96,11.65,12.57l6.61,1.47c3.61,.74,5.6,2.66,5.6,5.41s-2.22,5.61-7.17,5.61c-6.19,0-8.94-3.91-9.48-7.49l-8.35,2.32c.7,4.6,5.21,12.67,17.92,12.67Z"/></g><g><path class="cls-1" d="M52.6,78.9c0,2.13,1.61,4.42,5.15,4.42,8.06,0,9.75-5.55,9.75-10.21v-.43l-10.1,1.51c-3.19,.53-4.81,2.12-4.81,4.71Z"/><path class="cls-1" d="M159.98,83.4L102.48,2.1c-1.06-1.5-2.85-2.27-4.67-2.07-10.95,1.24-22.5,1.31-34.76,0-1.81-.19-3.59,.58-4.64,2.07L.91,83.4c-1.49,2.1-1.12,4.97,.81,6.68,45.25,40,112.41,39.8,157.45,0,1.93-1.7,2.3-4.58,.81-6.68Zm-90.99,9.65l-.32-.93c-.09-.26-.26-1.07-.39-2.47-2.39,2.32-6.38,4.78-12.56,4.78-9.43,0-16.53-6.4-16.53-14.88,0-7.98,5.49-13.54,14.68-14.87l11.48-1.74c1.98-.28,2.15-1.07,2.15-1.86,0-3.5-2.52-5.43-7.08-5.43-5.25,0-7.49,3.54-7.83,6.86l-.16,1.54-12.44-2.82,.13-1.21c1.11-10.4,11.01-15.84,20.2-15.84,12.77,0,20.39,6.77,20.39,18.1v22.24c0,4.22,.52,6.87,.53,6.89l.34,1.65h-12.59Zm34.51,1.38c-6.05,0-11.18-1.81-14.83-5.23-2.77-2.6-4.64-6.15-5.01-9.5l-.13-1.16,11.99-3.33,.15,1.64c.27,2.94,2.45,6.38,7.73,6.38,3.24,0,5.34-1.48,5.34-3.78s-2.25-3.23-4.14-3.62l-6.64-1.48c-8.21-1.81-13.11-7.19-13.11-14.39,0-8.71,7.99-15.8,17.82-15.8,12.08,0,17.58,7.35,18.63,13.65l.2,1.21-11.69,3.34-.22-1.56c-.18-1.3-1.23-5.53-6.92-5.53-2.84,0-5.06,1.66-5.06,3.78,0,1.67,1.27,2.92,3.4,3.34l6.8,1.38c8.88,1.93,13.97,7.38,13.97,14.95s-6.28,15.71-18.28,15.71Z"/></g></g></g></svg>