<?xml version="1.0" encoding="UTF-8"?><svg id="Layer_2" xmlns="http://www.w3.org/2000/svg" xmlns:xlink="http://www.w3.org/1999/xlink" viewBox="0 0 513.6 120"><defs><style>.cls-1{fill:url(#linear-gradient);}.cls-2{fill:#fff;}.cls-3{fill:#873fe0;}</style><linearGradient id="linear-gradient" x1="81.47" y1="88.06" x2="16.76" y2="-24.03" gradientUnits="userSpaceOnUse"><stop offset="0" stop-color="#873fe0"/><stop offset="1" stop-color="#c39eef"/></linearGradient></defs><g id="Artwork"><g id="Logo_Full-Color"><path class="cls-1" d="M1.72,90.08c45.25,40,112.41,39.8,157.45,0,1.93-1.7,2.3-4.58,.81-6.68L102.48,2.1c-1.06-1.5-2.85-2.27-4.67-2.07-10.95,1.24-22.5,1.31-34.76,0-1.81-.19-3.59,.58-4.64,2.07L.91,83.4c-1.49,2.1-1.12,4.97,.81,6.68Z"/><g><path class="cls-3" d="M195.75,65.05l-6.79-1.38c-2.75-.55-4.5-2.29-4.5-4.68,0-2.75,2.66-5.14,6.42-5.14,5.96,0,7.89,4.13,8.26,6.7l8.99-2.57c-.73-4.4-4.77-12.48-17.24-12.48-9.27,0-16.42,6.61-16.42,14.4,0,6.15,4.13,11.29,12.02,13.03l6.61,1.47c3.58,.73,5.23,2.57,5.23,4.95,0,2.75-2.29,5.14-6.7,5.14-5.69,0-8.72-3.58-9.08-7.62l-9.27,2.57c.55,5.05,5.51,13.48,18.44,13.48,11.38,0,16.88-7.52,16.88-14.31s-4.4-11.74-12.85-13.58Z"/><path class="cls-3" d="M234.82,45.53c-13.3,0-23.12,10-23.12,23.67s9.82,23.76,23.12,23.76,23.21-10,23.21-23.76-9.81-23.67-23.21-23.67Zm0,37.89c-6.51,0-12.47-4.95-12.47-14.22s5.96-14.04,12.47-14.04,12.47,4.77,12.47,14.04-5.87,14.22-12.47,14.22Z"/><path class="cls-3" d="M309.27,77.09v-20.73h9.27v-9.45h-9.27v-13.67h-9.63v6.7c0,3.95-2.11,6.97-6.88,6.97h-14.35v-5.87c0-5.51,3.76-6.79,6.6-6.79,2.02,0,3.21,.28,3.85,.46v-9.08c-.73-.37-2.93-.92-5.59-.92-9.18,0-15.6,6.05-15.6,16.06v6.15h-7.8v9.26h7.8v35.41h10.73V56.17h20.32v22.66c0,8.35,5.13,13.3,13.39,13.3,3.85,0,5.87-.73,6.51-1.01v-8.8c-.46,.09-2.2,.37-3.67,.37-3.94,0-5.69-1.65-5.69-5.59Z"/><polygon class="cls-3" points="374.26 77.82 363.72 46.91 352.71 46.91 342.16 77.82 333.07 46.91 321.7 46.91 336.2 91.58 347.11 91.58 357.93 59.48 369.03 91.58 379.68 91.58 393.99 46.91 383.17 46.91 374.26 77.82"/><path class="cls-3" d="M433.06,62.23c0-8.9-5.23-16.7-18.99-16.7-11.01,0-17.98,6.88-18.81,14.59l9.72,2.21c.46-4.5,3.58-8.08,9.18-8.08s8.44,3.03,8.44,6.79c0,1.56-.73,2.84-3.3,3.21l-11.47,1.74c-7.61,1.1-13.48,5.51-13.48,13.49,0,7.06,5.78,13.48,15.14,13.48,7.25,0,11.65-3.67,13.76-7.06,0,3.58,.37,5.41,.46,5.69h9.91c-.09-.46-.55-3.12-.55-7.16v-22.2Zm-10.46,10.83c0,8.71-5.14,11.56-11.1,11.56-4.22,0-6.51-2.75-6.51-5.78,0-3.67,2.66-5.51,5.96-6.05l11.65-1.74v2.02Z"/><path class="cls-3" d="M452.21,54.06v-7.15h-10.37v44.68h10.64v-21.28c0-8.35,3.76-13.12,12.02-13.12,1.1,0,2.29,.09,3.49,.28v-10.83c-.46-.09-1.56-.28-2.84-.28-5.87,0-10.83,2.84-12.93,7.71Z"/><path class="cls-3" d="M513.6,68.82c0-14.13-8.07-23.21-21.83-23.21-11.28,0-21.74,9.36-21.74,23.48,0,15.14,10.73,23.94,22.84,23.94,10.73,0,17.8-6.33,20.19-14.13l-8.99-2.84c-1.47,4.4-4.77,7.8-11.19,7.8s-11.93-4.86-12.2-11.65h32.66c.09-.18,.28-1.65,.28-3.39Zm-32.66-4.4c.37-4.77,4.22-9.91,10.92-9.91,7.34,0,10.83,4.68,11.01,9.91h-21.93Z"/></g><g><path class="cls-2" d="M54.12,66.06l11.47-1.74c2.57-.37,3.3-1.65,3.3-3.21,0-3.76-2.57-6.79-8.44-6.79s-8.72,3.58-9.18,8.08l-9.72-2.21c.83-7.71,7.8-14.59,18.81-14.59,13.76,0,18.99,7.8,18.99,16.7v22.2c0,4.04,.46,6.7,.55,7.16h-9.91c-.09-.28-.46-2.11-.46-5.69-2.11,3.39-6.51,7.06-13.76,7.06-9.36,0-15.14-6.42-15.14-13.48,0-7.98,5.87-12.39,13.48-13.49Zm14.77,7.07v-2.02l-11.65,1.74c-3.3,.55-5.96,2.38-5.96,6.05,0,3.03,2.29,5.78,6.51,5.78,5.96,0,11.1-2.84,11.1-11.56Z"/><path class="cls-2" d="M94.28,76.98c.37,4.04,3.39,7.62,9.08,7.62,4.4,0,6.7-2.38,6.7-5.14,0-2.38-1.65-4.22-5.23-4.95l-6.61-1.47c-7.89-1.74-12.02-6.88-12.02-13.03,0-7.8,7.15-14.4,16.42-14.4,12.48,0,16.52,8.08,17.25,12.48l-8.99,2.57c-.37-2.57-2.29-6.7-8.26-6.7-3.76,0-6.42,2.38-6.42,5.14,0,2.38,1.75,4.13,4.5,4.68l6.79,1.38c8.44,1.84,12.85,6.97,12.85,13.58s-5.51,14.31-16.88,14.31c-12.93,0-17.89-8.44-18.44-13.48l9.26-2.57Z"/></g></g></g></svg>